<?xml version="1.0" encoding="utf-8"?>
<!-- Generator: Adobe Illustrator 18.0.0, SVG Export Plug-In . SVG Version: 6.00 Build 0)  -->
<!DOCTYPE svg PUBLIC "-//W3C//DTD SVG 1.1//EN" "http://www.w3.org/Graphics/SVG/1.1/DTD/svg11.dtd">
<svg version="1.1" id="Layer_1" xmlns="http://www.w3.org/2000/svg" xmlns:xlink="http://www.w3.org/1999/xlink" x="0px" y="0px"
	 viewBox="0 0 109.2 127.4" enable-background="new 0 0 109.2 127.4" xml:space="preserve">
<g>
	<defs>
		<path id="SVGID_1_" d="M75.4,19.4c-2.5,0-5,0-7.5,0c-2.4,0-4.8,0-7.2,0c-2.6,0-5.2,0-7.8,0c-2.4,0-4.7,0-7.1,0c-2.6,0-5.2,0-7.8,0
			c-2.4,0-4.8,0-7.2,0c-2.5,0-5,0-7.5,0c0,1.9,0,3.7,0,5.6c0,2.4,0,4.9,0,7.3l0,0.3c-0.2,0.2-0.3,0.5-0.5,0.7
			c-0.2,0.6-0.4,1.2-0.5,1.8l-0.5,0.3l-0.7,0.1l-0.3,0l-0.3-0.1l-0.3-0.2L20.1,35l-0.4-0.9l-0.2-0.3l-0.3-0.2l-0.3-0.1l-0.2,0.1
			l-0.3,0.2l-0.3,0l-0.3-0.1l-0.3-0.2l-0.8-0.3l-0.2,0l-1,0.3L15,33.9l-0.4,0.2l-0.2,0.2l-0.1,0.4l0,0.4l-0.1,0.4L14,35.7l0,0.5
			l0.1,0.4l0.2,0.4l0.5,0.7L15,38l-0.3,0.6l-0.1,1.1l0,0.4l0.1,0.3l0.5,1.2l0.1,0.3l-0.1,0.4l0.1,0.7L15,43.8l0.2,0.7l0.2,0.8
			l0.4,0.8l0.1,0.4l0,0.4l0,0.4l0.2,0.8l0.1,0.7l0,0.3l-0.1,0.6L16,49.9l-0.4,0l-0.2,0.3l0.3,0.4l0,0.4l-0.3,0.4l0.1,0.5
			c0.1,0.7,0.1,1.5,0.2,2.2l0.3,0.3l0.3,0.3l0.1,0.3l0.1,0.7l0.2,0.3l0.3,0.2l0.4,0.1l0.9,1.8l0.1,0.3l0,0.4l0.2,0.4l0.3,0.3
			l0.1,0.3L19,60l-0.1,0.4l0.1,0.3l0.3,0.1l0.3,0.2l0.3,0.2l0.3,0.3l1.1,0.8l0.2,0.1l0.3,0.3l0.4,0.3l0.1,0.6l-0.5,0.5l-0.4,0.4
			l-0.4,0.5l-0.3,0.1l-1.4,1l-0.5,0.2l-0.2,0.2l-0.1,0.3l-0.1,0.7l-0.2,0.3L18,68.1l-0.2,0.2l-0.5,0.3L17,68.9L17,69.2l0.2,0.4
			l0.3,0.3l-0.1,0.3L17,70.4l0,0.7l0,0.4l0.2,0.3V72l-0.1,0.3l0.1,0.3l-0.2,0.4L17,73.3L17,73.7l0,0.3l-0.2,0.4l0.1,0.6l-0.1,0.3
			l-0.2,0.2l-0.3,0.3l-0.3,0.6l-0.5,0.9l-0.2,0.2L15,77.5l-0.7,0l-0.1,0.3l0.2,0.3l0,0.3l-0.3,0.6l0.4,0.7l0.2,1.1l-0.1,0.7
			l-0.2,0.6l0,0.6l0.4,0.6l0.5,0.2l1.2,0.1l0.5,0.3l0.4,0.5l0,0.4l0,0.4l0.2,1l0,0.3L17.1,87L17,87.2l0,0.3l0,0.3l0,0.3l-0.1,0.2
			l-0.6,0.1l-1.4-0.3l-0.5,0.4c0,0.2-0.1,0.4-0.1,0.6l-0.1,0.3l-0.2,0.3L13.5,90l-0.3,0.5l0.1,0.3l0,0.3l-0.2,0.6
			c0.1,0.3,0.2,0.3,0.4,0.4c2.3,0.8,4.5,1.6,6.8,2.5c2.6,0.9,5.2,1.9,7.8,2.8c2.4,0.9,4.8,1.7,7.1,2.6c2.1,0.8,4.1,1.5,6.2,2.2
			c2.5,0.9,5.1,1.8,7.6,2.8c2.5,0.9,5,1.8,7.6,2.7c2.1,0.8,4.2,1.6,6.4,2.4l0.8,0.1h19c2.4,0,4.8,0,7.2,0v-1.6c0-2.4,0-4.8,0-7.2
			V71.3c0-2.5,0-5,0-7.4V41.6c0-2.5,0-5.1,0-7.6V19.4c-2.4,0-4.7,0-7.1,0C80.4,19.4,77.9,19.4,75.4,19.4L66.3,67"/>
	</defs>
	<use xlink:href="#SVGID_1_"  overflow="visible" fill-rule="evenodd" clip-rule="evenodd" fill="#FFFFFF"/>
	<clipPath id="SVGID_2_">
		<use xlink:href="#SVGID_1_"  overflow="visible"/>
	</clipPath>
	
		<rect x="303.7" y="-2028.1" clip-path="url(#SVGID_2_)" fill-rule="evenodd" clip-rule="evenodd" fill="#FFFFFF" width="86.8" height="101"/>
</g>
</svg>
