<?xml version="1.0" encoding="utf-8"?>
<!-- Generator: Adobe Illustrator 18.0.0, SVG Export Plug-In . SVG Version: 6.00 Build 0)  -->
<!DOCTYPE svg PUBLIC "-//W3C//DTD SVG 1.1//EN" "http://www.w3.org/Graphics/SVG/1.1/DTD/svg11.dtd">
<svg version="1.1" id="Layer_1" xmlns="http://www.w3.org/2000/svg" xmlns:xlink="http://www.w3.org/1999/xlink" x="0px" y="0px"
	 viewBox="0 0 109.2 127.4" enable-background="new 0 0 109.2 127.4" xml:space="preserve">
<g>
	<defs>
		<path id="SVGID_1_" d="M86.2,107L86.2,107l-0.1,0l0,0.1l0,0l0.1,0.1l0.1,0.1l0-0.1l-0.1-0.2L86.2,107z M85,107.7L85,107.7l0.1,0.1
			l0.1-0.1L85,107.7L85,107.7z M85.6,91.8l-0.1,0.1l0,0.1l0.3,0.1l0.1,0L86,92l0-0.1l-0.1,0l-0.1,0L85.6,91.8L85.6,91.8L85.6,91.8z
			 M85.5,106.7l-0.4-0.3l-0.1,0l0,0l0,0l0.8,1.3l0,0.4l0.3-0.2l-0.2-0.5L85.5,106.7z M85.1,91.8l0.1,0.2l0,0l0,0l0,0l0,0l0-0.1
			l0.1-0.1l0.1,0l0.1,0l0-0.1l-0.1-0.1l-0.1,0l-0.2-0.2l-0.1-0.1L85,91.2l-0.1,0.1l0,0.1l0,0.1v0.3l0.1,0L85.1,91.8L85.1,91.8z
			 M84.7,91.6L84.7,91.6v-0.2l0,0l0-0.1L84.5,91l-0.1-0.1l-0.2,0l-0.1,0L84,91l-0.2,0.1l0,0.2l0.1,0.1l0,0v0.1l0,0l0-0.1l0-0.1
			l0-0.1l0.1,0l0.1,0l0,0l0.2,0l0.1,0.1l0,0.1l0.1,0.1L84.7,91.6L84.7,91.6z M84.7,107.3L84.7,107.3l-0.1,0L84.7,107.3L84.7,107.3
			l-0.2,0.1l0,0.1l0.1,0.1l0,0.1l0.1,0l0-0.1l0-0.2L84.7,107.3z M87,107.5l-0.2,0.2l0,0l0.1-0.1L87,107.5L87,107.5L87,107.5z
			 M94.4,101.5l0.2,0.1l0-0.1L94.4,101.5z M94,101.1l0.1,0.1L94,101.1L94,101.1z M94.4,101.3L94.4,101.3l-0.1,0.1L94.4,101.3
			L94.4,101.3L94.4,101.3z M88.9,106.8l-0.3,0.1l0.4,0l0.1,0.1l0.1,0.2l0.1-0.2l0.1-0.1l0.1-0.1l0.3-0.1l0,0l0-0.1l-0.3,0
			L88.9,106.8z M93.8,102.9L93.8,102.9L93.8,102.9L93.8,102.9z M84.3,107.3L84.3,107.3l-0.1-0.1l-0.1,0l-0.1,0l-0.1,0l0,0l-0.1,0.1
			l0,0.2l0.1,0.1l0,0l0,0l0.1,0l0.1,0l0.1,0l0.1,0l0.1,0.1l0.1,0.1l0-0.1l0-0.3L84.3,107.3z M93.9,104.8l-0.1,0.1l-0.1,0.1l0,0.1
			l0.1,0l0.2-0.1l0.1-0.1l0.1-0.2l0-0.1L93.9,104.8z M93,105.3L93,105.3l-0.1,0.1l0-0.1l0-0.1l-0.6,0.4l-0.1,0.2l0.5,0l0.2-0.1
			l0.1-0.1l0.1-0.1L93,105.3L93,105.3L93,105.3z M90,106.8l0.9-0.4l0.2-0.2l0.2,0l0.1,0l0.1,0V106l-0.4,0.1L90,106.8z M93.4,102.4
			l0.1,0.1L93.4,102.4L93.4,102.4L93.4,102.4z M81.5,90.8L81.5,90.8l0.1,0.2l0.1,0l0.2,0l0.1-0.1l0.2-0.3l0-0.1l-0.2-0.1l-0.2,0
			l-0.1,0l-0.1,0l0,0.1L81.5,90.8L81.5,90.8L81.5,90.8z M74.7,79.8l0-0.3l-0.1-0.1l0,0h-0.1l0.2,0.7l0.1,0.3l0.2,0.3l0-0.3
			L74.7,79.8z M45,35.3l-0.3,0.2l-0.5,0.3l-0.1,0.1l0.7-0.2l0.3-0.2l0.1-0.3l-0.1,0L45,35.3z M69.8,69.9l-0.3-0.6l-0.1-0.1l-0.2-0.1
			l0.1,0.2l0.2,0.2l0.1,0.1l0.1,0.2l0.5,0.6l0.2,0.2l0-0.2L69.8,69.9z M74.5,78.6l-0.1-0.3L74.3,78l-0.1-0.1l0,0L74.1,78l0.1,0.3
			l0,0.7l0.1,0.3l0.1-0.3L74.5,78.6z M64.6,44.9L64.6,44.9l-0.2-0.1l-0.1,0.1l0,0.2l0.1,0.1l0.2-0.1l0.1,0L64.6,44.9L64.6,44.9z
			 M43.3,36.4l-0.2,0.1l-0.1,0l0,0.1L43,36.6l-0.1,0l-0.1,0l0,0.1l0,0.1l0,0.1L40,38.1l-0.6,0.1l-0.3,0l-0.3-0.2l-0.2,0l0.3,0.2
			l0.3,0.1l0.7,0l0.3-0.1l0.8-0.4l0.3-0.2l1.3-0.5L43.3,36.4l0.2-0.1l0-0.1l0.1-0.1l0.1,0v-0.1l-0.2,0.1L43.3,36.4z M97.5,63.6
			l0.4,1l0.2,0.4l0,0.1l0,0.2l0.1,0.3l0.1,0.4l0.1,0.2l0.1,0.2l0.1,0.2l0.5,2.1l0.2,0.4l0,0.2l0,0.1l0.2,0.1l0,0.1l0,0.2l0.8,1.7
			l0.1,0.5l0.3,0.3l0.2,0.4l-0.1-0.3l-2.2-5.7l0-0.2l0-0.3l-0.1-0.3l-0.2-0.5l-0.5-0.9l-0.3-0.6l-0.1-0.6l0-0.1l0,0l0,0v-0.1l-0.1,0
			l0,0l0,0L97.5,63.6z M18.8,26.7l-0.4,0.1l-0.1-0.1L18,26.8L16.7,27l-0.6,0l-0.2,0l-0.3,0.1l-0.1,0l-0.3,0.1l-0.9,0l-0.7,0.3
			L12,27.8l-1,0l-0.2,0.1l0.7,0.1l8.6-1.1l0.1,0.1l0.1,0l0.1,0l0.1-0.1l-1.2-0.2L18.8,26.7z M38.7,37.4L38.7,37.4l0-0.2l0,0l-0.2,0
			l-0.2-0.1l-0.3,0l-0.2,0.2l-0.2,0l-0.5-0.1l0.1,0.1l0.3,0.1l0.1,0.1l0.1,0.1l0.1,0.1l0.1,0.1l0.1,0l0.3,0.1h0.1l0.1-0.1l0-0.1
			l0.1-0.1L38.7,37.4z M76.8,82.8l-0.2,0l-0.4-0.1l-0.2-0.1l-0.2-0.2l-0.1-0.2L75.4,82l0-0.2l0-0.1l-0.1-0.1l-0.1-0.1l0.1,0.4
			l0.1,0.4l0.1,0.2l0.1,0.2l0.1,0.1l0.8,0.4l0.2,0l0.2-0.1l0.3-0.3l0.2-0.1l-0.5-0.3L76.8,82.8z M82.1,108.5l-0.3,0.1l-0.1,0
			l-0.1-0.1h-0.1l-0.1,0.1l0,0.1l0,0.1l0.1,0.1v0.1l-0.1,0.1l-0.1,0l1-0.3L82.1,108.5L82.1,108.5z M81.1,108.8L81.1,108.8l-0.1-0.1
			h-0.1l-0.3,0.2l-0.1,0l-0.1,0l-0.1,0l-0.1,0l-0.1,0.2l0.4-0.1l0.2-0.1l0.1-0.1l0.1-0.1l0-0.1l0.1,0.1l0,0l0,0l0,0L81.1,108.8
			L81,109l0,0l0.1,0L81.1,108.8L81.1,108.8z M94.9,101.9L94.9,101.9l0-0.1L94.9,101.9L94.9,101.9z M83.5,107.3L83.5,107.3
			L83.5,107.3l-0.1,0L83.5,107.3l-0.2-0.1l-0.1,0.3l0.1,0l0.1,0l0,0.1l-0.1,0.1v0.1l0.2,0l0.1,0.1l0,0.1l-0.1,0.2h-0.1l-0.1-0.2
			l-0.2-0.1l-0.4-0.1l0.1,0.1l0.1,0.1l0.2,0.1l-0.1,0.1l0,0l0,0l-0.1,0.1l-0.3,0.1l-0.1-0.1l-0.1,0.1l-0.2,0.2v0.1l0.9-0.3l0.4-0.2
			L84,108v-0.1l-0.4-0.5L83.5,107.3z M83.6,90.6L83.6,90.6l-0.2-0.1l0,0.1l0,0.1l0.1,0.1l0.1,0l0,0.1l0,0.2l0,0.1l0.1-0.2l0-0.1
			l0-0.1L83.6,90.6L83.6,90.6L83.6,90.6L83.6,90.6z M76.2,79.7l-0.2-0.3l-0.3-0.1h-0.2l0.2,0.4l0.2,0.4l0.2,0.4L76,81l0.2,0.3
			l0.2,0.7l0.2,0.3l0.2,0.1l0-0.2l-0.1-0.7l-0.1-0.2l-0.2-0.3l-0.1-0.3l0.1-0.5L76.2,79.7z M76.2,108.5l-0.2,0l-0.1,0l0,0l0.1,0
			l0.1,0l0.1,0l0.1,0.1l0.1,0.2l0,0.1l0-0.1l0-0.1L76.2,108.5z M76.1,109.1L76.1,109.1h0.1l0.1-0.1l-0.1,0L76.1,109.1z M89,98.5
			l0.1,0.1l0.1,0.1l0-0.1l0-0.1l0-0.1l0-0.1l-0.1,0l-0.1,0l0,0l0,0l-0.1,0l-0.1,0.1L89,98.5z M69.2,48.6L69.2,48.6l0.1,0l0,0
			L69.2,48.6L69.2,48.6l0-0.1h-0.1l0,0l0,0L69.2,48.6L69.2,48.6z M67.6,45.6L67.6,45.6l-0.1-0.1h-0.1l-0.1,0l0,0.1l0,0.1L67.6,45.6
			L67.6,45.6z M68.9,50.1L68.9,50.1l0.1,0.1l0,0.1l0,0.1l0,0l0.1,0h0.1l0.1-0.1l0-0.1l-0.1-0.1L69,50L68.9,50.1L68.9,50.1z M68.5,49
			L68.5,49l0,0.1L68.5,49L68.5,49z M68.4,50L68.4,50L68.4,50L68.4,50L68.4,50z M69.5,53.5L69.5,53.5L69.5,53.5l0-0.1l-0.1,0
			L69.5,53.5L69.5,53.5L69.5,53.5L69.5,53.5z M68.8,51L68.8,51l0.1,0l0,0L68.8,51L68.8,51L68.8,51z M68.7,48.8L68.7,48.8L68.7,48.8
			L68.7,48.8L68.7,48.8L68.7,48.8l0.1,0L68.7,48.8L68.7,48.8L68.7,48.8L68.7,48.8L68.7,48.8z M68.5,49.6L68.5,49.6l0.1,0l0.1,0l0,0
			l0.1,0l0,0l0,0l-0.1,0L68.5,49.6L68.5,49.6z M69,48.9l0.2,0l0.1,0l0.1,0l0,0l0,0l-0.1,0h-0.1l-0.1,0L69,48.9L69,48.9z M95.3,53.1
			l-0.2-0.4l-0.2,0l-0.2,0.1L94.5,53l-0.3,0.2l-0.1,0.1L94,53.5l-0.3,0l-0.1,0.4l0,0.5l0.1,0.2l0.1,1.1l0.1,0.3l0.2,0.3l0.4,1.4
			l0.2,0.4l0-0.2l-0.1-0.2l-0.1-0.3l0-0.2l0-0.1l0.1-0.3l0.1-1.7l0.1-0.5l0.4-0.9L95.3,53.1z M69.6,48.7l-0.1-0.1l-0.1,0L69.6,48.7
			l-0.1,0.1l0,0.1l0,0.1l0,0.1l0.1,0.1l0,0l0,0l0,0L69.6,48.7L69.6,48.7z M94.9,58.3l0,0.2l0,0.2h0.1l0-0.1L94.8,58L94.9,58.3z
			 M69.4,52.3L69.4,52.3L69.4,52.3L69.4,52.3L69.4,52.3L69.4,52.3l-0.1-0.1l0,0L69.4,52.3L69.4,52.3z M69.2,51.8L69.2,51.8
			L69.2,51.8L69.2,51.8z M69.3,51.3L69.3,51.3L69.3,51.3L69.3,51.3L69.3,51.3z M69.5,50.5L69.5,50.5l-0.2,0l0,0.1L69.5,50.5
			L69.5,50.5z M69.2,50.8L69.2,50.8l-0.1,0v0.1L69.2,50.8L69,50.9l0,0l0,0l0,0l0.2,0.1l0,0.1l0,0h0.1l0,0l0.1-0.1l0-0.2L69.2,50.8
			L69.2,50.8z M89.4,98.8l0,0.2l0.1,0.2l0.1,0l0.1-0.1l0-0.1l0.1-0.2l0-0.1l-0.1,0l-0.2,0l-0.2,0L89.4,98.8z M96.3,100.3L96.3,100.3
			L96.3,100.3l-0.1,0.1l0,0.1l0,0l0.1,0L96.3,100.3z M97,101.4l0-0.2L97,101.4l-0.2,0l0,0.1l0,0l0,0.1l0,0L97,101.4L97,101.4z
			 M100.5,96.1L100.5,96.1l-0.2,0.9l-0.1,0.2l-0.2,0.1l0,0l0,0l0,0l0.2-0.2l0.2-0.3l0.1-0.3l0-0.3l0-0.1l0-0.1l0-0.1L100.5,96.1z
			 M100.9,92.9L100.9,92.9l-0.1,0.1l-0.1,0.1v0.1l0.1,0l0,0l0,0l0,0l-0.1,0.1l0,0.1l0.1,0.1l0.2,0l0.1-0.1l0-0.8L100.9,92.9
			L100.9,92.9z M95.6,100.7L95.6,100.7l0-0.1l-0.1,0l-0.1,0.1l0,0.1L95.6,100.7z M94.8,101.4L94.8,101.4L94.8,101.4l0,0.1l0,0.1l0,0
			l0,0l0-0.1L94.8,101.4L94.8,101.4L94.8,101.4z M91.2,99.5L91.2,99.5l0.1,0.3l0,0l0-0.1l0-0.1l-0.1-0.2l-0.1-0.1l-0.1,0.1
			L91.2,99.5L91.2,99.5L91.2,99.5z M99.4,98.2L99,98.7l-0.2,0.1l-0.4,0.1L98.4,99l0,0.2l0.1,0.1l0.1,0.1l0,0.2l-0.1,0.3l-0.5,0.5
			l-0.2,0.6l-0.6-0.1l-0.1,0.2l0.2-0.1l0.1,0.1l0.1,0.1l0,0.2l-0.1,0l0,0l0,0.1l0.1,0.1l-0.1,0.2l-0.1,0.1l-0.3,0l0,0.2l-0.1,0.2
			l-0.3,0.3l-0.2,0.3l-0.1,0.1l-0.2,0l-0.1,0.1l-0.1,0.5l-0.1,0.1l-0.2,0l-0.1,0.1l0.1,0.2l0.2,0l0.3-0.3l0.5-0.6l0.4-0.3l0.1-0.1
			l0.1-0.3l0.1-0.1l0.1,0l0.1-0.1l1-1v-0.1l-0.1-0.2l0.2-0.3l0.4-0.6l0.4-0.5l0.1-0.1l0-0.1l0.1-0.2l0.1-0.2l0.1-0.1l0.1,0l0,0
			l0-0.1l0-0.1l-0.3-0.1L99.4,98.2z M95.1,103.8l-0.4,0.5l0.1,0l0.3-0.3L95.1,103.8l0.1,0L95.1,103.8L95.1,103.8z M89,98.1L89,98.1
			l-0.1,0.1l0.1,0l0.4,0l0,0l-0.2,0L89,98.1z M89.8,98.6l0.1-0.1l0-0.1l-0.2-0.1l-0.1,0l0,0.1l0,0.1l0.1,0.1L89.8,98.6z M102.6,79.2
			l-0.1-0.4l-0.2-0.2v-0.1l0.2-0.2v-0.4l-0.3-1.3l-0.1-0.1l-0.1-0.1l-0.3-0.1l-0.2-0.1V76l0.1-0.1l0.1,0l0.1,0l0.1-0.2l0-0.2
			l-0.2-0.5l-0.3-0.8l-0.3-0.6l0-0.2l-0.1-0.2l-0.4-0.2l-0.1-0.2l-0.5-0.5l-0.1,0l-0.3,0.1l-0.1,0l-0.2-0.1l-0.1,0l-0.3-0.4
			l-0.1-0.1l0.2,0l0.1,0.1l0.1,0.1l0.1,0.1l0.3,0.1l0.5,0.1l0.1,0.1l0.1,0.3l0-0.2L98.7,68l-0.4-2.1l-4-8.9l-0.1-0.3l-0.4-0.8
			l-0.2-0.8l-0.1-0.3L93,53.4l0-0.6l0-0.3l-0.4-0.8l0.1-0.1v-0.1l-0.1-0.3L92.3,50l0.2,0.1l0.4,0.4l0.5,0.2l0,0.3l-0.1,0.3l-0.1,0.2
			l-0.1-0.1l-0.1,0.2l0,0.3v0.3l0.1,0.2l0.2,0.2l0.2,0.1l0.8,0.1l0.1,0l0.2,0l0,0l0-0.2l0-0.1l0.1,0l0.1,0l0.1,0l0,0l0.3,0l0.2,0.1
			l0.1,0.1l0.1,0.2l0.1,0.6l0,0.6l-0.4,1.8l0,2.4l0.1,0.6l0.4,1.1l0.7,1.3l0.1,0.5l0.4,0.4l0.1,0.1l0,0.1l0.3,0.6l0-0.6l-1-1.5
			L96,60.3l0-0.2l-0.2-0.4l-0.3-1.4l-0.1-0.8l0-0.3l-0.1-0.1l0.1-0.2l0-1.4l0-0.1l0.1,0l0.1-0.1l0.1-0.1l0-0.1l0.1,0l0.2-0.3
			l0.2-0.3l-0.2-0.3l-0.3-0.9L95.1,52L94.4,51l-0.8-1.5l-1.7-2.7l-0.1-0.3l-0.1-0.3l-0.2-0.2L91.4,46l0.1-0.3l-1.2-2.2l-0.8-2.3
			l-0.8-1.7l-0.6-1l-0.1-0.3L88,38.1l0-0.3l-0.1-0.3l-0.4-0.7L87.4,36l-0.1-0.1l-0.1-0.2L87.1,35L87,34.8l0.1-0.1L87,34.6l-0.1-0.1
			l0-0.1l0.1-0.1l-0.1,0l-0.1-0.1l-0.1,0l0.1-0.5l-0.4-1.7L86.2,31l-0.1-0.3l-0.3-0.5L85.8,30l-0.4-1.6l0-0.6l0.1-0.6l0-0.1
			l-0.1-0.1l-0.1-0.1l0-0.1l0-0.5l0-0.2L85.1,26l-0.1-0.1l-0.1,0l-0.1-0.1l-0.1-0.1l-0.1-0.2l-0.1-0.1l-0.3-0.3l0-0.1l-0.2-0.1
			l-0.1-0.2l0-0.3l0-0.3l0-0.3l0-0.1l0.1,0l0.1,0l0.1,0.1l0.1,0.1l0,0.1l0,0.3l0,0.3l0.1,0.2l0.2,0.1l0-0.4l0-1.2l0.1-0.4l0-0.2
			l-0.1-0.1l0,0l0-0.1l0-0.1l-0.1,0l-0.1,0l-0.2,0.1l-0.1,0l-0.3-0.1l0-0.1l-0.1,0l-0.2-0.1l-0.4,0.1l-0.1,0l-0.5-0.1l-0.1-0.1
			l-0.2-0.1l-0.1,0l-0.1,0l-0.1,0L81.4,22l-0.2-0.1l-0.1-0.1L81,21.7l-0.1-0.1l-0.2,0l-0.1,0l-0.1,0l-1.2-0.5L79.2,21L79.1,21
			l-0.2-0.1l-0.1,0l-0.1,0l-0.1,0l-0.2,0l-0.1,0l-0.1,0l-0.1,0.1l0,0.1l0,0.1v0l0,0.1l0,0.1l0,0.1l-0.1,0l-0.1,0l-0.1,0l-0.1,0
			l-0.1,0l0,0.1l0,0.2l0,0.1l0,0.1l-0.1,0.1l0,0.1l0,0.1l0,0.1l0,0.1l0,0.4l0,0.1l0,0.1L77.1,23l0,0.1l0,0.2l0,0.1l0,0.1l0.1,0.1
			l0.2,0.3l0.1,0.1l0,0.1l0,0.1l0,0.2l-0.2,1l-0.3,0.9l0,0.2l0,0.1l0,0.4l0,0.1l0,0.1l0,0.1l-0.1,0l-0.3,0.1h-0.1l-0.1,0l-0.2-0.1
			l-0.1,0l-0.6,0.1l-0.1,0l-0.1,0l-0.1,0l0-0.1l-0.1-0.1l-0.2-0.5l0-0.1l0-0.1l0-0.1l0-0.2l0.1-0.2l0-0.1l0-0.1l0-0.1l0-0.1
			l-0.1-0.1L75,25.5l-0.3-0.4L74.6,25l0-0.1v-0.1l0-0.1l0.1-0.1l0-0.1v0l0,0l-0.5,0l-0.5,0l-0.6,0l-0.7,0l-0.8-0.1l-0.9-0.1l-1-0.1
			l-1.1-0.1L67.4,24L66.1,24l-1.3-0.1l-1.3-0.1l-1.4-0.1l-1.4-0.1l-1.4-0.1l-1.4-0.1l-1.4-0.1l-1.4-0.1l-1.4-0.1L52.3,23L51,22.9
			l-1.3-0.1l-1.2-0.1l-1.1-0.1l-1.1-0.1l-1-0.1l-0.9-0.1l-0.8-0.1l-0.6,0l-0.5,0l-0.4,0l-0.2,0l-0.1,0l-0.4,0l-0.1,0l-0.6-0.6
			l-0.2-1l0-0.6l-0.1-0.3l-0.2-0.3l-0.1-0.1l-0.1-0.4l-0.1-0.2L40,18.7l-0.2-0.2l-0.1-0.1l0-0.2l0,0H21.7l-2,0H7L7,18.4l0,0.7l0,0.1
			l-0.3,0.6l0,0.1l0,0.1l0,0.1l0,0.1l0.1,0.1l0.1,0.2L7,20.7l0.6,0.6l0.1,0.1l0.3,0.5l0.2,0.2l0.2,0.1l1,0.6L9.4,23l0,0.1l0,0.1
			l0,0.2l-0.1,0.5l-0.1,0.4L9,24.6l0,0.1l0,0.1l0,0.2l0.2,0.7l0,0l0.2,0.1L9.5,26l0.1,0l0.3,0l0.1,0l0.1,0.1l0.1,0.2l0,0.2l-0.1,0.1
			l-0.3,0.1l-0.2,0.2l-0.4,0.4v0.1l0.2,0.1l0,0.1l-0.1,0.1l-0.1,0.1l-0.2,0l-0.3,0L8.4,28l0.2,0.1l0.2,0.1l-0.5,0.1l-0.1,0l-0.1,0.1
			l-0.1,0.1L8,28.5l-0.1,0.1v0.1L8,28.6l0.3-0.1l0.1,0l0.2-0.1l1.8-0.4l0.3-0.1l0-0.3l0.1,0l0.3,0l0.1-0.1l0-0.1l0-0.4l0-0.1
			l0.2-0.1l0.3,0l0.2-0.1l0.1-0.3l0.1,0l0,0l0,0h0.1l0.3-0.6l0-0.2l-0.1-0.3L12.3,25l-0.1-0.2l0-0.5l0-0.2l0.2,0l0.1,0.1l0.1,0.1
			l0.1,0.1l0.2,0l0,0.1l0,0.2l0,0.1l0.3,0l0.1,0.2l0,0.3l0.1,0.2l-0.1,0.2l0,0.2l0.1,0.2l0.2,0l0.1-0.2l0.1-0.5l0.2-0.3l0.3-0.8
			l0.1-0.1l0-0.1l-0.1-0.3l0.3,0.2l0.1,0.3l0.1,0.2l0.2-0.2l0.1,0.1l0,0l0,0.1l-0.4,0.2L14.4,25l-0.1,0.2l0,0.1l0.1,0.1l0.1,0h0.1
			l0.1,0.1l0.2,0.3l0.1,0.1l0.2,0l0.3,0.1l0.3,0.1l0.2,0.2l0,0.2l-0.2-0.1l-0.2-0.1l-0.2-0.1l-0.8,0.7l-0.2,0l-0.7,0L12.8,27
			l-0.5,0.2l-0.1,0l-0.1,0.1l-0.1,0.2l0.6-0.1l1.3-0.3l2-0.3l0.7,0l0.4-0.1l0.3-0.1l0.3,0.1l1-0.1l1,0.1l0.1-0.1l0-0.2l0-0.1l0.3,0
			l0.2,0l0.2-0.2l0.1,0l0.2,0l0.2-0.1l0.1-0.1l0.1-0.1l0-0.1L21,25.3l0-0.2l0.1,0.2l0.1,0.1l0.1,0l0.1-0.2l0.1-0.1l0.1,0l0.3,0
			l-0.3,0.4l-0.1,0.2l0.2,0.2l0.2,0l0.2-0.1l0.2-0.1l0.2-0.1l0.2,0l0.5-0.1l0.2,0l0.5,0.1l0.3,0l0.2-0.2l0.2,0.4l0.2,0.1l0.2,0
			l0.3-0.2l0,0.2L25.3,26l-0.1,0.1l0.1,0.2l0.4,0.4l0,0.1l0.1,0.1l0,0.2l-0.1,0.1L25.5,27L25.3,27l-0.6-0.2l-0.3-0.3l-0.2-0.1
			l-0.2,0l-0.2,0.1l0,0.1l0.2,0.1l0.2,0l0.1,0l0,0.1l-0.1,0.1L24.1,27l-0.6-0.1l-0.1-0.1l-0.1-0.2l-0.1-0.2l0,0l0,0l-0.1,0l-0.1,0.1
			L23,26.7L23,26.9L22.8,27L22,26.8l-1,0l-0.2-0.1l0,0v0l0,0l0.3,0.2l1.5,0.2l2.2,0.6l1.6,0.5l1.5,0.8l1.1,0.5l1.5,1.1l0.3,0.1
			l-0.1-0.1l-0.1-0.1l0.1,0l0.2,0.2l0.1-0.2l-0.2-0.2l-0.2-0.1l-0.1-0.2l0.2-0.3l-0.2-0.2l-0.1-0.2l-0.1-0.1l-0.2-0.1l-0.3,0
			l-0.2,0.1h-0.1l-0.2-0.2L29,28.9l0.1-0.2l0.2-0.1l0.2-0.1l0.4,0l0.1-0.1l0.1-0.3l0.2,0.3l0.2,0.2l0.1,0.2l0,0.2l0.2,0L31,29
			l0.1-0.2l0.1-0.1l0.2-0.1l0.2-0.1l0.1,0l0.1,0.2l0.2-0.2l0.3-0.5l0.1-0.1l0.1,0.1l0.1,0.2l0.2,0.3l-0.3,0L32,29.1L31.7,29l-0.2,0
			L31,29.7l-0.3,0.2l0.1,0.1l0.1,0.1l0.1,0.1l0.4,0.2l0.1,0.1l0.1,0.2l0.2-0.1l0.3,0.1l0.3,0.2l0.2,0.1l0-0.1l0-0.1l0-0.1l0-0.1
			l0.2,0.1l0.2-0.1l0.2-0.1l0.2,0v0.1l-0.2,0.2l0,0.2l0.1,0.1l0.2-0.1l0,0.2l0,0.5l0.1,0.2l0.2,0.1l0.1-0.1l0.2-0.3l0.1-0.1l0,0
			l0,0.1l0.1,0.1l0.1,0l0.2,0l0.1,0l0.1,0.2l-0.1,0.1l-0.2,0.1l-0.1,0.1l-0.2,0.1l-0.4-0.2l-0.4-0.3l-0.2-0.3l-0.2-0.2l-0.8-0.3
			l0-0.3l-0.8-0.1l-0.1,0l0.1,0.2l0.6,0.6l0.2,0.1l1.6,1.3l-0.3,0l-0.3-0.2l-0.3-0.3l-0.1-0.2h-0.1l0,0.1l0,0.1l0,0.1l0.1,0.1
			l0.4,0.3l1.4,0.7l0.2,0.2l0.2,0.2l0.2,0.3l0.1,0.3l0.1,0.2l0.4,0.5l0.1,0.3l-0.1,1l0,0.2l0,0.1L35.9,37l-0.1,0.1l-0.1,0.1l-0.2,0
			l-0.1-0.1L35,36.6l-0.1-0.3L34.8,36l0-0.3l0-1l0-0.1l-0.2,0.3l0,0.7l0.2,1.2L35,37l0.2,0.2l0.2,0.1l0.5-0.2l0.3,0l0.3,0.1l0.3,0
			l1.5-0.5l0.5,0l1,0.1l0.2-0.1l0.3-0.4l0.3,0l0.2-0.4l0.2-0.1l0.2-0.1l0.2-0.1l0.2-0.1l0.2,0.1l-0.4,0.6l-0.1,0.1l0.1,0.3l0.1,0
			l0.2-0.2l0.2-0.1l0.2-0.1l0.2-0.1l0.3-0.2l0.2-0.1l0.3,0l0.2-0.1l0.6-0.6l0.4-0.3l0.6-0.2l0.5-0.4l0.7-0.4l0.1,0.1l0.2,0l0.2-0.1
			l0.2,0l0.5,0l0.5,0.2v0.1l-0.1,0.1l-0.1,0.2l0.4-0.2l0.2-0.3l-0.1-0.3l-0.4-0.1L47,33.2l-0.1-0.1l0-0.2l0-0.1l-0.2,0l0.2-0.2
			l0.2,0.1l0.2,0.2l0.4,0.1l0.3,0.1l0.2,0l0-0.1l-0.3-0.3l-0.1-0.1l0,0.1l-0.1,0.1l0,0.1l-0.1-0.1l0-0.1l0-0.1l0,0l0,0l0-0.1
			l0.1-0.1l0,0l0,0l0.1,0l0-0.2l0.1-0.1l0.5-0.2l0.1,0l0.4,0l0-0.1l0.1-0.2l0.1-0.2l0.1-0.1l0.1,0l0.1,0l0,0l0,0h0.3l0.1,0l0.1-0.1
			l0.1,0l0.1,0l0,0l0,0l0,0l0.1,0.1l0.1,0.2l0.1,0.1l0.1-0.1l0.3-0.2l0.9-0.1l0.4-0.2l0.2,0l0.9,0.8l1.2,0.7l0.6,0.2l0.3-0.1
			l0.3,0.3l0.2,0.1l0.2,0.1l0.2,0.1l0.6,0.4l0.1,0.1l0.1,0.2l0.5,0.5l0.1,0.3l0.1,0.1l0.1,0.1l0.1,0.1l0.1,0.1l0.1,0.3l0,0.1
			l0.1,0.2l0.2,0.3l0.2,0.3l0.2,0.2l0.4,0.2L59,37l0.1,0.1l0.1,0.1l0.3,0.1l0.2,0l0.2,0.1l0.1,0.2l0.1,0.3l0,0.3L60,38.6l-0.1,0.2
			l0.1,0.1l0.1,0.2l0,0.2L60,39.4l0.3,0.2l0.2,0.1l0.1,0l0.6,0.8l0.3,0.3l0.3-0.1l0.3,0.2l0.2,0.2l0.4,0.5l0.2,0.4l0,0l0,0.3l0,0.1
			l0,0.1l0.1,0.1l0.2,0.1l0.2,0.1l0.2,0l0.2,0.1l0.1,0.2l0.1,0.2l0.1,0.1l-0.1,0.1l0,0.1l0.1,0.1l0.2,0l0.1,0.1l0,0.2l0.1,0.2
			l0.2,0.1l0.2,0l0.1,0l0.2-0.1l0.2,0l0.4,0l0.1,0l0.2,0.1l0.3,0.1l0.3,0l0.3-0.2l0.1,0.1l0.1,0.1l0.1,0.1l0.1-0.1l0.3-0.1v0.3
			l0,0.2l0.1,0.2l0.2,0.1l-0.3,0.2l0.1,0.2l0.5,0.4l0,0.1v0.4l0,0.1l-0.1,0.1l0.1,0.1l0.1,0.1l0.1,0l-0.1,0.3l0.1,0.2l0.5,0.7
			l0.1,0.1l0.1,0l0.2,0l0.1,0l0.1,0.2l0,0.2l-0.1,0.7l0,0.2l0.1,0.4l-0.3-0.4l-0.2-0.1l-0.2,0.2l0,0.1l0.2,0.3l0.1,0.2l0,0.1h0.1
			l0.1,0l0,0.1v0.5l0,0.1l0,0.1l0,0.1l-0.1,0.1l0,0.1l0,0.1l0,0.1l0,0.1l-0.1,0.2l0,1.2l-0.1,0.4l0,0.2l0,0.8l-0.3,0.5l0,0.1v0.1
			l-0.1,0.2l-0.5,1.2l0.1,0l0,0l0,0l0,0.2l-0.1,0.2l-0.3,0.4L68.2,58l-0.1,0.2L68,58.3l-0.1-0.1l-0.1,0.2l0,0.3l0,0.2l0.1,0.4
			l0.1,0.2l0.1,0.2l-0.1,0.1l0,0.2l0,0.4l-0.3,1.3l-0.4,1.1l-0.1-0.2l0-0.2l0.1-0.2l0.1-0.2L67.2,62l-0.1,0.2L67,62.5l0,0.3l0,0.3
			l0.1,0.4l0,0.2l0.2,0.3l0.8,0.8l0.2,0.5l0,0.2l0.1,0.3l0.1,0.3l0.2,0l0-0.2l-0.1-0.3L68.4,65l-0.1-0.3l-0.8-0.8l-0.1-0.2l0-0.2
			l0.2,0.2l0.5,0.4l0.2,0.3l0.2,0.3l0.2,0.1l0.3,0l0,0.1l0,0.3l0,0.1l0.1,0.1l0.1,0h0.2l0.2-0.1l0.1-0.2l0-0.3l-0.1-0.2l0.2-0.4
			l0-0.1l0-0.1l0.2-0.2l0.1-0.1v-0.2l-0.1-0.3l0-0.2l0.4-0.2l0.1-0.1l-0.5,0.1l-0.5-0.2l-0.5-0.3l-0.5-0.2l0.2-0.2l0.6-0.2l0.2-0.2
			h-0.5l-0.1,0l0-0.1l0.1-0.1l0-0.1l0.1-0.2l0-0.1l0-0.1L69,60.8l0-0.1l0.5,0.5l0-0.1l0,0h0.1l0.1,0.2l0.2,0.1l0.4,0.2v0.1L70,61.6
			v0.1l0.4,0l0.3,0.1l0.2,0.2l0.1,0.4L70.9,63l0,0.4l0.2,0.3l0.1,0l0.4,0l0.1-0.1l0-0.1l-0.1-0.2l0-0.5l0.1-0.2l0.1-0.2l0.3-0.1
			l0.2,0l0.2,0.2l0.1,0.6l0.2,0.6l0,0.3l-0.1,0.2l-0.4,0.5l-0.1,0.1l-0.4,0.2L71.8,65l-0.2,0.4l-0.1,0.1l-0.1,0l-0.1,0.1l0,0.2
			l0,0.1l-0.4,0.3l-0.2,0.3l-0.1,0.3l-0.1,0.3l-0.3,0.2l0.1,0.1l0,0.1l-0.1,0.2l0.2-0.1l0.2,0l-0.1,0.2l-0.2,0.1l-0.4,0.1l-0.2,0.1
			l0.2,0L70,68l0.1,0.1l0.1,0.1l-0.3,0L69.7,68l-0.3-0.1l-0.2,0.2l0.1,0.1l0.1,0.1l0.1,0l0.1-0.1h0.1l0,0.1l0,0.1l-0.1,0.1l-0.1,0.1
			l-0.1-0.1L69,68.5l-0.1-0.1l-0.1-0.1l-0.2-0.5h-0.1l0,0.2l0.2,0.6l0.1,0.2l0.2,0.1l0.5,0.1l0.5,0.4l0.2,0.1l0.2,0.2l0.1,0.7
			l0.3,0.5l0,0.4h-0.1l0-0.1l0,0l0,0l-0.1,0l0,0.3l0.2,0.3l0.2,0.3l0.1,0.3h0.1V72l0.1,0.1l0.1,0.2l0,0.2v0.2l-0.1-0.1l0-0.1
			l-0.1-0.2l0.1,0.3l0.3,0.6l0.1,0.5l1.1,2.3l0.1,0.3l0.1,0.1l0.1,0l0.2,0.1l-0.1-0.2L73.1,76l0-0.2l0.3,0.4l0.4,1.2l0.4,0.3l0.1,0
			l0.1,0l0.2,0.1l0.1,0.1l0.1,0.1l0.1,0l0.1,0l0,0l0,0l0,0l0.1,0l0.1,0.1l0,0l0.1-0.1l0.1-0.1l0.1-0.1l0-0.1l0.1,0.2l0,0.4l0.1-0.1
			l0.1-0.2l0-0.2l-0.1-0.6l-0.2-0.5l-0.1-0.1l-0.1-0.1L75.2,76l-0.1-0.2L75,76l-0.1-0.1l-0.4-0.5l-0.1-0.3l0-0.1l0.3,0.1l0.1,0.2
			l0.3,0.4l0.2,0l0.2-0.1l0.1,0l0,0.2l0.2,0.3l0.1,0.1l0.1,0l0.1-0.1l0.2,0l0.2,0l0.1-0.2l0.3,0.1l0.2,0l0.2-0.1l0.5-0.1l0.3-0.3
			l0.2-0.1l-0.2,0.4l-0.1,0.1l-0.1,0.1l-0.3,0.1l-0.6,0.4l-0.2,0.2l0,0.2l0.3,0.2l0.2,0.1l0.1,0.1l0,0.3l0,0.3l-0.3,1.6l0,0.3
			l0.1,0.2l0.2,0.5l0.1,0.3l0,0.3L77,81.2l0,0.2l0.1,0.2l0.2,0.2l0.2,0l0.2-0.1l0.3-0.1v0.2l0.1-0.1l0.3-0.1l0.1-0.1l0.1-0.1
			l0.4-1.1l0.1-0.2l0.4-0.4l0.2-0.2l0.2-0.1l0.2,0l0.3-0.2l0.2-0.1l-0.1,0.2l-0.1,0.1l-0.1,0.1l-0.1,0.1L80,79.6l-0.1,0.1l-0.1,0.1
			l0,0.1l-0.6,0.5L79,80.6l0.1,0.4l-0.2,0.4l-0.3,0.3l-0.3,0.2L78.1,82l-0.1,0.1l-0.1,0l-0.1,0l-0.1-0.2l-0.1,0L77.7,82l0,0.2v0.2
			l0,0.1l0.1-0.1l0.1,0.1l0,0l0.2-0.1l0.7,0.4H79l0.1,0l0.1,0.1l0.1,0l0.1,0l0.1-0.1l0-0.3l0-0.2l0.1,0.2l0.3,0.4l0.1,0.2l0.1,0.3
			l0,0.9h-0.1v-0.1h-0.1l0,0.2l0.4,0.7l0,0l0,0.1l-0.1,0.5l0.1,1.1l0.2,1h0.1l0-0.2l0-0.1l0-0.1l0.1-0.1l0.2,1l0.2,0.4l0.4,0.3
			L81.1,89l0,0.2l0.1,0.2l0.1,0.1l0.1,0l0.3,0l0.2,0l0,0.2l-0.1,0.2l-0.1,0.2L81.6,90l-0.1-0.1l-0.1-0.1l-0.1-0.1L81,89.7l0.1,0.4
			l0,0.1l0.1,0.1l0,0l0.1,0h0.1l0-0.1l0.1-0.1l0,0l0-0.1l0-0.1l0.1,0.1l0.1,0.1l0.1,0l0.2,0l0.1-0.1l0.1-0.2l0.1-0.1l0.1,0.2
			l0.1,0.1l0.1,0.1l0.1,0l0,0.1l0,0v0L83,90.4l0.1,0l0.1-0.1l0.1,0l0.1,0l0.2,0.1l0.3,0.1l0.1,0.1l0.1,0.1l0.2-0.2l0.1,0.1l0.2,0.2
			l0.1,0.1l0.2,0.1l0.4,0.1l0.2,0.1l0.3,0.2l0.3,0.3l0.2,0.4l0.1,0.1L86,92.4l-0.1,0.2l0.2,0.1l0.1,0.1l0.2,0.4l0.1,0.1l0.1,0l0.4,0
			l0,0.3l0,0.2l0.1,0.1l0,0.2l0.3,0.5l0.1,0.6l0,0.1l0.1,0.1l0.3-0.1l0.1,0.1l0,0.1l0,0.1l-0.1,0.1l-0.2,0.2l0.1,0.3l0.4,0.5
			l0.2,0.5l0,0.1l0.1,0.3l0,0.1l0.1,0.1l0.6,0.5l0.5,0.1l0.1,0l0.2,0.1l0.4,0.1l0.2,0.1l0.7,0.8l0.1,0.2l-0.1,0.3l-0.2,0.2l-0.3,0.1
			l-0.3,0l-0.2-0.1v-0.1l0.1,0l0.1-0.1l0.1,0v-0.1l-1-0.4l-0.2-0.1l0,0l-0.2-0.4l-0.1-0.1L89,98.5l-0.1-0.1l-0.2,0l0.1-0.2l-0.2,0.2
			l-0.2,0.5l-0.1,0.5l0,0.4l0.1,0.4l0.2,0.4l0.6,0.6l0.2,0l0.6-0.1l0.5,0l0.4-0.1l0.5,0l0.2,0l0.3-0.3l0.1,0l0.4-0.2l0.2,0.2
			l0.4,0.1l0,0.1v0.1l0.1,0l0.1,0l0,0l0-0.1l0.1,0.1l0.1,0l0.1,0l0.1,0l0-0.1l0,0l0,0l0-0.1l0.1,0.1l0.2,0.1l0.2,0l0.2,0l0.2-0.2
			l0.2-0.1l0.2,0.1h0.1l0.1-0.1l0-0.1l0-0.1l0-0.1l0.1,0l0.5-0.1l0,0.1l0,0l0,0l0,0l0.2,0.1l0.1-0.2l0.1-0.3l0.1-0.2l0.2-0.1l0.5,0
			l0.2,0l0,0.1l0,0l0,0.1l-0.1,0l-0.1,0l0,0.1l0,0.1l0.1,0l0.1,0.1l0.1,0.1l0,0.1l0.2-0.1l0.2,0l0.2,0.2l0,0.3h0.1l0-0.3l-0.2-0.2
			L97,99.9l-0.3,0l0.2-0.2l0.3-0.1l0.2,0v0.2l0.2,0.1l0.2,0.4l0.2,0.2l0-0.1l-0.2-0.2l-0.2-0.2l0-0.3l0-0.2l0.2-0.2l0-0.1l0-0.1
			l0.1-0.1l0.6-0.6l0.5-0.4l0-0.2L99,97.6l-0.2-0.1l-0.1-0.1l0.1-0.3l0.1-0.2l0-0.1l-0.1-0.1l-0.1-0.1l0-0.3l0-0.3l0.1-0.3l0.2-0.3
			l0.1-0.2l0-0.7l0-0.3l0.4-0.4l0.3-0.6l0-0.3l0-0.1l0.1-0.1l0.1,0h0.1l0.1-0.1l0.2-0.3l0-0.6l0.2-0.4l0.1-0.5l0.5-0.6l0.1,0l0,0.2
			l0,0.4l-0.1,0.6v0.6h0.1l0.2-4.1l-0.2-0.3v-0.1l0.2-0.2l0.1-0.4l0.3-2l0-0.3l0.1-0.2l0-0.2l0-0.5l0-0.2l0.1-0.4l0.1-1.9l0.2,0
			l0.1-0.4L102.6,79.2z M95,101.4l0-0.1l-0.1-0.2l0,0l0,0l0,0.1L95,101.4L95,101.4z M90.7,99.5L90.7,99.5l0.2-0.1l-0.1-0.1l-0.1,0
			l0,0l0,0l0,0L90.7,99.5L90.7,99.5z M90.9,99.9l0.1,0h0l0-0.1l0.1,0l0.1,0l0,0l0-0.1l-0.1,0l-0.1,0l0,0l0,0.1L90.9,99.9z M70,67.4
			L70,67.4l-0.1,0.2l0.2-0.1L70,67.4L70,67.4z M70.1,67.5L70.1,67.5L70.1,67.5L70.1,67.5z M66.7,108.1L66.7,108.1L66.7,108.1
			L66.7,108.1z M66.1,108L66.1,108L66.1,108L66.1,108z M66.8,108L66.8,108L66.8,108L66.8,108z M67,107.8L67,107.8L67,107.8L67,107.8
			L67,107.8L67,107.8L67,107.8L67,107.8z M66.8,108.1L66.8,108.1L66.8,108.1L66.8,108.1z"/>
	</defs>
	<clipPath id="SVGID_2_">
		<use xlink:href="#SVGID_1_"  overflow="visible"/>
	</clipPath>
	
		<rect x="1.6" y="13.2" clip-path="url(#SVGID_2_)" fill-rule="evenodd" clip-rule="evenodd" fill="#FFFFFF" width="106" height="101"/>
</g>
</svg>
