<?xml version="1.0" encoding="utf-8"?>
<!-- Generator: Adobe Illustrator 18.0.0, SVG Export Plug-In . SVG Version: 6.00 Build 0)  -->
<!DOCTYPE svg PUBLIC "-//W3C//DTD SVG 1.1//EN" "http://www.w3.org/Graphics/SVG/1.1/DTD/svg11.dtd">
<svg version="1.1" id="Layer_1" xmlns="http://www.w3.org/2000/svg" xmlns:xlink="http://www.w3.org/1999/xlink" x="0px" y="0px"
	 viewBox="0 0 332.2 127.4" enable-background="new 0 0 332.2 127.4" xml:space="preserve">
<g>
	<defs>
		<path id="SVGID_1_" d="M34.3,44.4c-1.3-5.9-5.2-7-9.3-7c-7.2,0-11.9,4.9-11.9,13.7c0,7,3.4,14.8,12.6,14.8c1.7,0,3.3-0.2,4.4-0.6
			c1-0.4,1.4-0.7,1.4-3v-4.1c0-3.1-0.2-3.5-5.3-3.8v-1.1h12v1.1c-2.6,0.4-2.8,0.6-2.8,3.8v3.2c0,1.7,0,3.1,0.3,4.2
			c-2.9,0.8-6.7,1.8-10.2,1.8c-9.9,0-17-6.3-17-15.4c0-10.5,8.5-16.1,17.3-16.1c4.1,0,7.3,0.8,8.9,1.2c0.1,1.6,0.4,4,0.7,7.2
			L34.3,44.4"/>
	</defs>
	<clipPath id="SVGID_2_">
		<use xlink:href="#SVGID_1_"  overflow="visible"/>
	</clipPath>
	
		<rect x="3.4" y="30.9" clip-path="url(#SVGID_2_)" fill-rule="evenodd" clip-rule="evenodd" fill="#1A191A" width="39.7" height="41.5"/>
</g>
<g>
	<defs>
		<path id="SVGID_3_" d="M47.6,54.2H50c1.6,0,2.9-0.2,4-1.1c1.7-1.3,2.3-3.3,2.3-5.2c0-4.2-3-5.8-6-5.8c-1.4,0-1.9,0.1-2.2,0.2
			c-0.2,0.1-0.4,0.3-0.4,1.1V54.2z M47.6,60.9c0,4.3,0.3,4.6,3.6,4.8v0.9H40.6v-0.9c3.4-0.2,3.7-0.5,3.7-4.8V46.6
			c0-4.3-0.3-4.6-3.5-4.8v-0.9h10.2c2.6,0,4.8,0.4,6.3,1.3c1.6,1,2.6,2.8,2.6,5.1c0,3.3-2,5.6-5.3,6.9c0.7,1.2,2.4,3.9,3.6,5.7
			c1.4,2.1,2.3,3.2,3.4,4.4c0.8,1,1.6,1.6,3,2L64.5,67h-0.6c-4.6-0.1-6-1.5-7.5-3.7c-1.2-1.8-2.9-4.7-4-6.6c-0.6-1-1.3-1.4-2.5-1.4
			h-2.2V60.9z"/>
	</defs>
	<clipPath id="SVGID_4_">
		<use xlink:href="#SVGID_3_"  overflow="visible"/>
	</clipPath>
	
		<rect x="35.6" y="35.9" clip-path="url(#SVGID_4_)" fill-rule="evenodd" clip-rule="evenodd" fill="#1A191A" width="33.9" height="36.1"/>
</g>
<g>
	<defs>
		<path id="SVGID_5_" d="M72.5,55.4h7.1L76,45.6h-0.1L72.5,55.4z M80.1,65.8l1.3-0.2c1.5-0.2,1.6-0.6,1.2-1.8c-0.3-1-1.4-4-2.6-6.9
			h-8.1c-0.4,1-1.4,4.1-2,5.8c-0.8,2.3-0.4,2.8,1.4,3l1.2,0.1v0.9H64v-0.9c2.6-0.3,2.9-0.5,4.3-4l8.2-21.1l0.9-0.4l2.8,7.5
			c1.9,5,3.6,10.1,5.2,14.1c1.3,3.3,1.8,3.6,4.3,3.8v0.9h-9.7V65.8z"/>
	</defs>
	<clipPath id="SVGID_6_">
		<use xlink:href="#SVGID_5_"  overflow="visible"/>
	</clipPath>
	
		<rect x="59" y="35.3" clip-path="url(#SVGID_6_)" fill-rule="evenodd" clip-rule="evenodd" fill="#1A191A" width="35.8" height="36.4"/>
</g>
<g>
	<defs>
		<path id="SVGID_7_" d="M114.9,67h-1L96.5,46h-0.1v10.1c0,4.2,0.2,6.3,0.3,7.5c0.2,1.4,1.3,1.9,3.9,2.1v0.9h-9.6v-0.9
			c2.2-0.1,3.2-0.7,3.4-2.1c0.2-1.2,0.3-3.4,0.3-7.5v-8.6c0-2.9,0-3.5-0.8-4.4c-0.8-1-1.8-1.2-3.5-1.4v-0.9h5.8l16.9,20h0.1v-9.5
			c0-4.2-0.2-6.3-0.3-7.5c-0.2-1.4-1.3-1.9-3.9-2.1v-0.9h9.6v0.9c-2.2,0.1-3.2,0.7-3.4,2.1c-0.2,1.2-0.3,3.4-0.3,7.5V67"/>
	</defs>
	<clipPath id="SVGID_8_">
		<use xlink:href="#SVGID_7_"  overflow="visible"/>
	</clipPath>
	
		<rect x="85.6" y="35.9" clip-path="url(#SVGID_8_)" fill-rule="evenodd" clip-rule="evenodd" fill="#1A191A" width="38.1" height="36.1"/>
</g>
<g>
	<defs>
		<path id="SVGID_9_" d="M127.9,61.6c0,1.8,0.1,2.6,0.7,3.1c0.5,0.4,1.5,0.7,2.8,0.7c8.4,0,11.6-5.8,11.6-11.7c0-4-0.9-8.3-4.9-10.3
			c-1.6-0.8-3.8-1.3-7-1.3c-2,0-2.6,0.1-2.9,0.2c-0.2,0.1-0.4,0.3-0.4,1.1V61.6z M132.3,40.9c4.8,0,8.6,1,11.2,3.3
			c2,1.9,3.5,4.8,3.5,8.4c0,9.8-7.6,14-17,14h-9.2v-0.9c3.4-0.2,3.8-0.5,3.8-4.8V46.6c0-4.3-0.3-4.6-3.4-4.8v-0.9H132.3z"/>
	</defs>
	<clipPath id="SVGID_10_">
		<use xlink:href="#SVGID_9_"  overflow="visible"/>
	</clipPath>
	
		<rect x="115.7" y="35.9" clip-path="url(#SVGID_10_)" fill-rule="evenodd" clip-rule="evenodd" fill="#1A191A" width="36.2" height="35.8"/>
</g>
<g>
	<defs>
		<path id="SVGID_11_" d="M185.6,44.2c-1.4-5.3-4.4-6.8-9-6.8c-8.4,0-12.1,6.3-12.1,13.6c0,8.9,4.6,14.9,12.2,14.9
			c5.2,0,7.7-2.5,9.9-7.4l1.2,0.1c-0.6,2-1.6,5.7-2.4,7.5c-1.3,0.3-5.5,1.3-8.8,1.3c-11.8,0-16.8-8-16.8-15.3
			c0-9.5,7.4-16.2,17.7-16.2c4,0,7.1,0.9,8.4,1.2c0.4,2.5,0.6,4.6,0.8,7L185.6,44.2"/>
	</defs>
	<clipPath id="SVGID_12_">
		<use xlink:href="#SVGID_11_"  overflow="visible"/>
	</clipPath>
	
		<rect x="154.9" y="30.9" clip-path="url(#SVGID_12_)" fill-rule="evenodd" clip-rule="evenodd" fill="#1A191A" width="37.9" height="41.5"/>
</g>
<g>
	<defs>
		<path id="SVGID_13_" d="M197.1,55.4h7.1l-3.5-9.8h-0.1L197.1,55.4z M204.8,65.8l1.3-0.2c1.5-0.2,1.6-0.6,1.2-1.8
			c-0.3-1-1.4-4-2.6-6.9h-8.1c-0.4,1-1.4,4.1-2,5.8c-0.8,2.3-0.4,2.8,1.4,3l1.2,0.1v0.9h-8.6v-0.9c2.6-0.3,2.9-0.5,4.3-4l8.2-21.1
			l0.9-0.4l2.8,7.5c1.9,5,3.6,10.1,5.2,14.1c1.3,3.3,1.8,3.6,4.3,3.8v0.9h-9.7V65.8z"/>
	</defs>
	<clipPath id="SVGID_14_">
		<use xlink:href="#SVGID_13_"  overflow="visible"/>
	</clipPath>
	
		<rect x="183.6" y="35.3" clip-path="url(#SVGID_14_)" fill-rule="evenodd" clip-rule="evenodd" fill="#1A191A" width="35.8" height="36.4"/>
</g>
<g>
	<defs>
		<path id="SVGID_15_" d="M239.6,67h-1L221.2,46h-0.1v10.1c0,4.2,0.2,6.3,0.3,7.5c0.2,1.4,1.3,1.9,3.9,2.1v0.9h-9.6v-0.9
			c2.2-0.1,3.2-0.7,3.4-2.1c0.2-1.2,0.3-3.4,0.3-7.5v-8.6c0-2.9,0-3.5-0.8-4.4c-0.8-1-1.8-1.2-3.5-1.4v-0.9h5.8l16.9,20h0.1v-9.5
			c0-4.2-0.2-6.3-0.3-7.5c-0.2-1.4-1.3-1.9-3.9-2.1v-0.9h9.6v0.9c-2.2,0.1-3.2,0.7-3.4,2.1c-0.2,1.2-0.3,3.4-0.3,7.5V67"/>
	</defs>
	<clipPath id="SVGID_16_">
		<use xlink:href="#SVGID_15_"  overflow="visible"/>
	</clipPath>
	
		<rect x="210.2" y="35.9" clip-path="url(#SVGID_16_)" fill-rule="evenodd" clip-rule="evenodd" fill="#1A191A" width="38.1" height="36.1"/>
</g>
<g>
	<defs>
		<path id="SVGID_17_" d="M257.7,60.9c0,4.3,0.3,4.6,4.2,4.8v0.9h-11.5v-0.9c3.7-0.2,4-0.5,4-4.8v-4.5c0-0.7-0.1-1.1-0.9-2.4
			c-1.8-3.1-3.4-6-5.1-8.9c-1.7-2.9-1.9-3.1-4.2-3.3v-0.9h9.6v0.9l-1.8,0.2c-1,0.2-1.3,0.5-0.6,1.7c1.8,3.3,3.6,6.6,5.6,9.9
			c1.7-3.2,3.5-6.4,5-9.7c0.7-1.4,0.4-1.8-1.2-2l-1.6-0.2v-0.9h8.8v0.9c-2.7,0.2-2.9,0.8-4.6,3.4c-1.8,2.8-3.3,5.5-5,8.7
			c-0.6,1.1-0.7,1.3-0.7,2.1V60.9"/>
	</defs>
	<clipPath id="SVGID_18_">
		<use xlink:href="#SVGID_17_"  overflow="visible"/>
	</clipPath>
	
		<rect x="239.1" y="35.9" clip-path="url(#SVGID_18_)" fill-rule="evenodd" clip-rule="evenodd" fill="#1A191A" width="33.8" height="35.8"/>
</g>
<g>
	<defs>
		<path id="SVGID_19_" d="M280,41.6c-4.7,0-8.7,3.9-8.7,11.3c0,7.7,4,13.1,9.9,13.1c4.8,0,8.7-3.7,8.7-11.1
			C289.9,46.3,285.7,41.6,280,41.6z M293.8,53.4c0,8.3-5.8,13.8-13.5,13.8c-7.6,0-12.9-5.7-12.9-13.2c0-6.7,4.7-13.8,13.7-13.8
			C287.9,40.3,293.8,45.6,293.8,53.4z"/>
	</defs>
	<clipPath id="SVGID_20_">
		<use xlink:href="#SVGID_19_"  overflow="visible"/>
	</clipPath>
	
		<rect x="262.4" y="35.3" clip-path="url(#SVGID_20_)" fill-rule="evenodd" clip-rule="evenodd" fill="#1A191A" width="36.4" height="37"/>
</g>
<g>
	<defs>
		<path id="SVGID_21_" d="M320.6,67h-1L302.2,46h-0.1v10.1c0,4.2,0.2,6.3,0.3,7.5c0.2,1.4,1.3,1.9,3.9,2.1v0.9h-9.6v-0.9
			c2.2-0.1,3.2-0.7,3.4-2.1c0.2-1.2,0.3-3.4,0.3-7.5v-8.6c0-2.9,0-3.5-0.8-4.4c-0.8-1-1.8-1.2-3.5-1.4v-0.9h5.8l16.9,20h0.1v-9.5
			c0-4.2-0.2-6.3-0.3-7.5c-0.2-1.4-1.3-1.9-3.9-2.1v-0.9h9.6v0.9c-2.2,0.1-3.2,0.7-3.4,2.1c-0.2,1.2-0.3,3.4-0.3,7.5V67"/>
	</defs>
	<clipPath id="SVGID_22_">
		<use xlink:href="#SVGID_21_"  overflow="visible"/>
	</clipPath>
	
		<rect x="291.2" y="35.9" clip-path="url(#SVGID_22_)" fill-rule="evenodd" clip-rule="evenodd" fill="#1A191A" width="38.1" height="36.1"/>
</g>
<g>
	<defs>
		<path id="SVGID_23_" d="M71,75.9V85c0,3.4,1.5,4.9,3.6,4.9c2.3,0,3.8-1.5,3.8-4.9v-9.1h2v9c0,4.7-2.5,6.7-5.9,6.7
			c-3.2,0-5.6-1.8-5.6-6.6v-9.1H71"/>
	</defs>
	<clipPath id="SVGID_24_">
		<use xlink:href="#SVGID_23_"  overflow="visible"/>
	</clipPath>
	
		<rect x="64" y="70.9" clip-path="url(#SVGID_24_)" fill-rule="evenodd" clip-rule="evenodd" fill="#1A191A" width="21.4" height="25.6"/>
</g>
<g>
	<defs>
		<path id="SVGID_25_" d="M92.9,91.3V75.9h2.2l5,7.8c1.2,1.8,2.1,3.4,2.8,5l0,0c-0.2-2.1-0.2-3.9-0.2-6.3v-6.4h1.9v15.4h-2l-4.9-7.8
			c-1.1-1.7-2.1-3.5-2.9-5.1l-0.1,0c0.1,1.9,0.2,3.8,0.2,6.3v6.6H92.9"/>
	</defs>
	<clipPath id="SVGID_26_">
		<use xlink:href="#SVGID_25_"  overflow="visible"/>
	</clipPath>
	
		<rect x="87.9" y="70.9" clip-path="url(#SVGID_26_)" fill-rule="evenodd" clip-rule="evenodd" fill="#1A191A" width="21.7" height="25.4"/>
</g>
<g>
	<defs>
		<rect id="SVGID_27_" x="117.1" y="75.9" width="2" height="15.4"/>
	</defs>
	<clipPath id="SVGID_28_">
		<use xlink:href="#SVGID_27_"  overflow="visible"/>
	</clipPath>
	
		<rect x="112.1" y="70.9" clip-path="url(#SVGID_28_)" fill-rule="evenodd" clip-rule="evenodd" fill="#1A191A" width="12" height="25.4"/>
</g>
<g>
	<defs>
		<path id="SVGID_29_" d="M135.1,91.3L130,75.9h2.2l2.4,7.6c0.7,2.1,1.2,3.9,1.7,5.8h0c0.4-1.8,1.1-3.7,1.8-5.7l2.6-7.6h2.1
			l-5.5,15.4H135.1"/>
	</defs>
	<clipPath id="SVGID_30_">
		<use xlink:href="#SVGID_29_"  overflow="visible"/>
	</clipPath>
	
		<rect x="125" y="70.9" clip-path="url(#SVGID_30_)" fill-rule="evenodd" clip-rule="evenodd" fill="#1A191A" width="22.8" height="25.4"/>
</g>
<g>
	<defs>
		<polyline id="SVGID_31_" points="161.6,84.1 155.5,84.1 155.5,89.6 162.3,89.6 162.3,91.3 153.5,91.3 153.5,75.9 161.9,75.9 
			161.9,77.6 155.5,77.6 155.5,82.4 161.6,82.4 161.6,84.1 		"/>
	</defs>
	<clipPath id="SVGID_32_">
		<use xlink:href="#SVGID_31_"  overflow="visible"/>
	</clipPath>
	
		<rect x="148.5" y="70.9" clip-path="url(#SVGID_32_)" fill-rule="evenodd" clip-rule="evenodd" fill="#1A191A" width="18.7" height="25.4"/>
</g>
<g>
	<defs>
		<path id="SVGID_33_" d="M173.9,76.1c1-0.2,2.5-0.3,3.8-0.3c2.1,0,3.5,0.4,4.5,1.3c0.8,0.7,1.2,1.7,1.2,2.9c0,2-1.3,3.4-2.9,3.9V84
			c1.2,0.4,1.9,1.5,2.3,3.1c0.5,2.1,0.9,3.6,1.2,4.2h-2.1c-0.3-0.5-0.6-1.8-1-3.7c-0.5-2.1-1.3-2.9-3.1-3h-1.9v6.7h-2V76.1z
			 M175.9,83.1h2c2.1,0,3.5-1.2,3.5-2.9c0-2-1.5-2.9-3.6-2.9c-1,0-1.7,0.1-2,0.2V83.1z"/>
	</defs>
	<clipPath id="SVGID_34_">
		<use xlink:href="#SVGID_33_"  overflow="visible"/>
	</clipPath>
	
		<rect x="168.9" y="70.8" clip-path="url(#SVGID_34_)" fill-rule="evenodd" clip-rule="evenodd" fill="#1A191A" width="20.1" height="25.5"/>
</g>
<g>
	<defs>
		<path id="SVGID_35_" d="M195,88.9c0.9,0.5,2.2,1,3.6,1c2.1,0,3.2-1.1,3.2-2.6c0-1.4-0.8-2.3-2.9-3.1c-2.5-0.9-4.1-2.2-4.1-4.4
			c0-2.4,2-4.2,5-4.2c1.6,0,2.7,0.4,3.4,0.8l-0.6,1.6c-0.5-0.3-1.5-0.7-2.9-0.7c-2.1,0-2.9,1.3-2.9,2.3c0,1.4,0.9,2.1,3.1,3
			c2.6,1,4,2.3,4,4.5c0,2.4-1.8,4.5-5.4,4.5c-1.5,0-3.1-0.5-4-1L195,88.9"/>
	</defs>
	<clipPath id="SVGID_36_">
		<use xlink:href="#SVGID_35_"  overflow="visible"/>
	</clipPath>
	
		<rect x="189.5" y="70.7" clip-path="url(#SVGID_36_)" fill-rule="evenodd" clip-rule="evenodd" fill="#1A191A" width="19.4" height="25.9"/>
</g>
<g>
	<defs>
		<rect id="SVGID_37_" x="215.7" y="75.9" width="2" height="15.4"/>
	</defs>
	<clipPath id="SVGID_38_">
		<use xlink:href="#SVGID_37_"  overflow="visible"/>
	</clipPath>
	
		<rect x="210.7" y="70.9" clip-path="url(#SVGID_38_)" fill-rule="evenodd" clip-rule="evenodd" fill="#1A191A" width="12" height="25.4"/>
</g>
<g>
	<defs>
		<polyline id="SVGID_39_" points="233.2,77.6 228.4,77.6 228.4,75.9 239.9,75.9 239.9,77.6 235.2,77.6 235.2,91.3 233.2,91.3 
			233.2,77.6 		"/>
	</defs>
	<clipPath id="SVGID_40_">
		<use xlink:href="#SVGID_39_"  overflow="visible"/>
	</clipPath>
	
		<rect x="223.4" y="70.9" clip-path="url(#SVGID_40_)" fill-rule="evenodd" clip-rule="evenodd" fill="#1A191A" width="21.5" height="25.4"/>
</g>
<g>
	<defs>
		<path id="SVGID_41_" d="M254.8,91.3v-6.5l-4.9-8.9h2.3l2.2,4.2c0.6,1.2,1.1,2.1,1.5,3.2h0c0.4-1,1-2,1.6-3.2l2.2-4.2h2.3l-5.2,8.8
			v6.6H254.8"/>
	</defs>
	<clipPath id="SVGID_42_">
		<use xlink:href="#SVGID_41_"  overflow="visible"/>
	</clipPath>
	
		<rect x="244.9" y="70.9" clip-path="url(#SVGID_42_)" fill-rule="evenodd" clip-rule="evenodd" fill="#1A191A" width="22.1" height="25.4"/>
</g>
<g>
	<defs>
		<polyline id="SVGID_43_" points="267.3,74 266.2,74 266.2,73.6 268.8,73.6 268.8,74 267.7,74 267.7,77 267.3,77 267.3,74 		"/>
	</defs>
	<clipPath id="SVGID_44_">
		<use xlink:href="#SVGID_43_"  overflow="visible"/>
	</clipPath>
	
		<rect x="261.2" y="68.6" clip-path="url(#SVGID_44_)" fill-rule="evenodd" clip-rule="evenodd" fill="#1A191A" width="12.5" height="13.4"/>
</g>
<g>
	<defs>
		<path id="SVGID_45_" d="M272,75.5c0-0.5-0.1-1-0.1-1.5h0c-0.1,0.4-0.3,0.8-0.4,1.3l-0.6,1.6h-0.3l-0.6-1.6
			c-0.2-0.5-0.3-0.9-0.4-1.3h0c0,0.4,0,1-0.1,1.5l-0.1,1.5h-0.4l0.2-3.4h0.6l0.6,1.6c0.1,0.4,0.3,0.8,0.3,1.1h0
			c0.1-0.3,0.2-0.7,0.4-1.1l0.6-1.6h0.6l0.2,3.4h-0.4L272,75.5"/>
	</defs>
	<clipPath id="SVGID_46_">
		<use xlink:href="#SVGID_45_"  overflow="visible"/>
	</clipPath>
	
		<rect x="264.1" y="68.6" clip-path="url(#SVGID_46_)" fill-rule="evenodd" clip-rule="evenodd" fill="#1A191A" width="13.5" height="13.4"/>
</g>
</svg>
