<?xml version="1.0" encoding="utf-8"?>
<!-- Generator: Adobe Illustrator 18.0.0, SVG Export Plug-In . SVG Version: 6.00 Build 0)  -->
<!DOCTYPE svg PUBLIC "-//W3C//DTD SVG 1.1//EN" "http://www.w3.org/Graphics/SVG/1.1/DTD/svg11.dtd">
<svg version="1.1" id="Layer_1" xmlns="http://www.w3.org/2000/svg" xmlns:xlink="http://www.w3.org/1999/xlink" x="0px" y="0px"
	 viewBox="0 0 23.4 19.9" enable-background="new 0 0 23.4 19.9" xml:space="preserve">
<g>
	<defs>
		<path id="SVGID_1_" d="M15.4,4.8c1,0,1.8,0.4,2.4,1c0.6-0.2,1.4-0.4,2.1-0.8c-0.1,0.6-0.4,1.5-1.4,1.9c0,0,0,0,0,0
			c0.5-0.1,1.3-0.3,1.8-0.7c0.8-0.5-0.5,1.1-1.6,1.9v0.3v0.3c0,5.1-4,9.3-9,9.3c-1.9,0-3.6-0.6-5-1.5c1.9,0.5,4.3-0.8,4.7-1.3
			c-2.4-0.2-3-2.4-3-2.4s1.2,0.2,1.3-0.2c-2.5-0.5-2.5-3.2-2.5-3.2s0.9,0.5,1.2,0.3C4.2,7.6,5.6,5.3,5.6,5.2C7,7.4,9.4,8.4,12.3,8.8
			c0-0.3-0.1-0.5-0.1-0.8C12.2,6.2,13.6,4.8,15.4,4.8z"/>
	</defs>
	<use xlink:href="#SVGID_1_"  overflow="visible" fill-rule="evenodd" clip-rule="evenodd" fill="#ED2089"/>
	<clipPath id="SVGID_2_">
		<use xlink:href="#SVGID_1_"  overflow="visible"/>
	</clipPath>
	
		<rect x="-0.4" y="-0.2" clip-path="url(#SVGID_2_)" fill-rule="evenodd" clip-rule="evenodd" fill="#ED2089" width="25.9" height="23.2"/>
</g>
</svg>
