<?xml version="1.0" encoding="utf-8"?>
<!-- Generator: Adobe Illustrator 18.0.0, SVG Export Plug-In . SVG Version: 6.00 Build 0)  -->
<!DOCTYPE svg PUBLIC "-//W3C//DTD SVG 1.1//EN" "http://www.w3.org/Graphics/SVG/1.1/DTD/svg11.dtd">
<svg version="1.1" id="Layer_1" xmlns="http://www.w3.org/2000/svg" xmlns:xlink="http://www.w3.org/1999/xlink" x="0px" y="0px"
	 viewBox="0 0 612 792" enable-background="new 0 0 612 792" xml:space="preserve">
<g>
	<g>
		<path id="SVGID_1_" fill="#282828" d="M422.6,147.7c-14,0-28,0-42,0c-13.5,0-26.9,0-40.4,0c-14.6,0-29.1,0-43.7,0
			c-13.5,0-26.3,0-39.8,0c-14.6,0-29.1,0-43.7,0c-13.5,0-26.9,0-40.4,0c-14,0-28,0-42,0c0,10.6,0,20.7,0,31.4c0,13.5,0,27.5,0,40.9
			v1.7c-1.1,1.1-1.7,2.8-2.8,3.9c-1.1,3.4-2.2,6.7-2.8,10.1l-2.8,1.7l-3.9,0.6h-1.7l-1.7-0.6l-1.7-1.1l-0.6-1.1l-2.2-5l-1.1-1.7
			l-1.7-1.1l-1.7-0.6l-1.1,0.6l-1.7,1.1h-1.7l-1.7-0.6l-1.7-1.1l-4.5-1.7h-1.1l-5.6,1.7l-2.8,2.2l-2.2,1.1l-1.1,1.1l-0.6,2.2v2.2
			l-0.6,2.2l-1.1,1.1v2.8l0.6,2.2l1.1,2.2l2.8,3.9l1.1,1.7l-1.7,3.4l-0.6,6.2v2.2l0.6,1.7l2.8,6.7l0.6,1.7l-0.6,2.2l0.6,3.9
			l-1.7,4.5l1.1,3.9l1.1,4.5l2.2,4.5l0.6,2.2v2.2v2.2l1.1,4.5l0.6,3.9v1.7l-0.6,3.4l-0.6,1.1h-2.2l-1.1,1.7l1.7,2.2v2.2l-1.7,2.2
			l0.6,2.8c0.6,3.9,0.6,8.4,1.1,12.3l1.7,1.7l1.7,1.7l0.6,1.7l0.6,3.9l1.1,1.7l1.7,1.1l2.2,0.6l5,10.1l0.6,1.7v2.2l1.1,2.2l1.7,1.7
			l0.6,1.7v1.1l-0.6,2.2l0.6,1.7l1.7,0.6l1.7,1.1l1.7,1.1l1.7,1.7l6.2,4.5l1.1,0.6l1.7,1.7l2.2,1.7l0.6,3.4l-2.8,2.8l-2.2,2.2
			l-2.2,2.8l-1.7,0.6l-7.8,5.6l-2.8,1.1l-1.1,1.1l-0.6,1.7l-0.6,3.9L102,419l-1.1,1.7l-1.1,1.1l-2.8,1.7l-1.7,1.7v1.7l1.1,2.2
			l1.7,1.7l-0.6,1.7l-2.2,1.1v3.9v2.2l1.1,1.7v1.1l-0.6,1.7l0.6,1.7l-1.1,2.2v1.7v2.2v1.7l-1.1,2.2l0.6,3.4l-0.6,1.7l-1.1,1.1
			l-1.7,1.7l-1.7,3.4l-2.8,5l-1.1,1.1h-1.7h-3.9l-0.6,1.7l1.1,1.7v1.7l-1.7,3.4l2.2,3.9l1.1,6.2l-0.6,3.9l-1.1,3.4v3.4l2.2,3.4
			l2.8,1.1l6.7,0.6l2.8,1.7l2.2,2.8v2.2v2.2l1.1,5.6v1.7l-2.8,2.8l-0.6,1.1v1.7v1.7v1.7l-0.6,1.1l-3.4,0.6l-7.8-1.7l-2.8,2.2
			c0,1.1-0.6,2.2-0.6,3.4l-0.6,1.7l-1.1,1.7l-2.8,1.7l-1.7,2.8l0.6,1.7v1.7l-1.1,3.4c0.6,1.7,1.1,1.7,2.2,2.2
			c12.9,4.5,25.2,9,38.1,14c14.6,5,29.1,10.6,43.7,15.7c13.5,5,26.9,9.5,39.8,14.6c11.8,4.5,23,8.4,34.7,12.3
			c14,5,28.6,10.1,42.6,15.7c14,5,28,10.1,42.6,15.1c11.8,4.5,23.5,9,35.9,13.5l4.5,0.6H464c13.5,0,26.9,0,40.4,0v-9
			c0-13.5,0-26.9,0-40.4V438.6c0-14,0-28,0-41.5v-125c0-14,0-28.6,0-42.6v-81.8c-13.5,0-26.3,0-39.8,0
			C450.6,147.7,436.6,147.7,422.6,147.7l-51,266.8"/>
	</g>
	<g>
		<defs>
			<path id="SVGID_2_" d="M422.6,147.7c-14,0-28,0-42,0c-13.5,0-26.9,0-40.4,0c-14.6,0-29.1,0-43.7,0c-13.5,0-26.3,0-39.8,0
				c-14.6,0-29.1,0-43.7,0c-13.5,0-26.9,0-40.4,0c-14,0-28,0-42,0c0,10.6,0,20.7,0,31.4c0,13.5,0,27.5,0,40.9v1.7
				c-1.1,1.1-1.7,2.8-2.8,3.9c-1.1,3.4-2.2,6.7-2.8,10.1l-2.8,1.7l-3.9,0.6h-1.7l-1.7-0.6l-1.7-1.1l-0.6-1.1l-2.2-5l-1.1-1.7
				l-1.7-1.1l-1.7-0.6l-1.1,0.6l-1.7,1.1h-1.7l-1.7-0.6l-1.7-1.1l-4.5-1.7h-1.1l-5.6,1.7l-2.8,2.2l-2.2,1.1l-1.1,1.1l-0.6,2.2v2.2
				l-0.6,2.2l-1.1,1.1v2.8l0.6,2.2l1.1,2.2l2.8,3.9l1.1,1.7l-1.7,3.4l-0.6,6.2v2.2l0.6,1.7l2.8,6.7l0.6,1.7l-0.6,2.2l0.6,3.9
				l-1.7,4.5l1.1,3.9l1.1,4.5l2.2,4.5l0.6,2.2v2.2v2.2l1.1,4.5l0.6,3.9v1.7l-0.6,3.4l-0.6,1.1h-2.2l-1.1,1.7l1.7,2.2v2.2l-1.7,2.2
				l0.6,2.8c0.6,3.9,0.6,8.4,1.1,12.3l1.7,1.7l1.7,1.7l0.6,1.7l0.6,3.9l1.1,1.7l1.7,1.1l2.2,0.6l5,10.1l0.6,1.7v2.2l1.1,2.2l1.7,1.7
				l0.6,1.7v1.1l-0.6,2.2l0.6,1.7l1.7,0.6l1.7,1.1l1.7,1.1l1.7,1.7l6.2,4.5l1.1,0.6l1.7,1.7l2.2,1.7l0.6,3.4l-2.8,2.8l-2.2,2.2
				l-2.2,2.8l-1.7,0.6l-7.8,5.6l-2.8,1.1l-1.1,1.1l-0.6,1.7l-0.6,3.9L102,419l-1.1,1.7l-1.1,1.1l-2.8,1.7l-1.7,1.7v1.7l1.1,2.2
				l1.7,1.7l-0.6,1.7l-2.2,1.1v3.9v2.2l1.1,1.7v1.1l-0.6,1.7l0.6,1.7l-1.1,2.2v1.7v2.2v1.7l-1.1,2.2l0.6,3.4l-0.6,1.7l-1.1,1.1
				l-1.7,1.7l-1.7,3.4l-2.8,5l-1.1,1.1h-1.7h-3.9l-0.6,1.7l1.1,1.7v1.7l-1.7,3.4l2.2,3.9l1.1,6.2l-0.6,3.9l-1.1,3.4v3.4l2.2,3.4
				l2.8,1.1l6.7,0.6l2.8,1.7l2.2,2.8v2.2v2.2l1.1,5.6v1.7l-2.8,2.8l-0.6,1.1v1.7v1.7v1.7l-0.6,1.1l-3.4,0.6l-7.8-1.7l-2.8,2.2
				c0,1.1-0.6,2.2-0.6,3.4l-0.6,1.7l-1.1,1.7l-2.8,1.7l-1.7,2.8l0.6,1.7v1.7l-1.1,3.4c0.6,1.7,1.1,1.7,2.2,2.2
				c12.9,4.5,25.2,9,38.1,14c14.6,5,29.1,10.6,43.7,15.7c13.5,5,26.9,9.5,39.8,14.6c11.8,4.5,23,8.4,34.7,12.3
				c14,5,28.6,10.1,42.6,15.7c14,5,28,10.1,42.6,15.1c11.8,4.5,23.5,9,35.9,13.5l4.5,0.6H464c13.5,0,26.9,0,40.4,0v-9
				c0-13.5,0-26.9,0-40.4V438.6c0-14,0-28,0-41.5v-125c0-14,0-28.6,0-42.6v-81.8c-13.5,0-26.3,0-39.8,0
				C450.6,147.7,436.6,147.7,422.6,147.7"/>
		</defs>
		<clipPath id="SVGID_3_">
			<use xlink:href="#SVGID_2_"  overflow="visible"/>
		</clipPath>
		<rect x="1702.1" y="-11327.3" clip-path="url(#SVGID_3_)" fill="#FFFFFF" width="486.5" height="566"/>
	</g>
</g>
</svg>
