<?xml version="1.0" encoding="utf-8"?>
<!-- Generator: Adobe Illustrator 18.0.0, SVG Export Plug-In . SVG Version: 6.00 Build 0)  -->
<!DOCTYPE svg PUBLIC "-//W3C//DTD SVG 1.1//EN" "http://www.w3.org/Graphics/SVG/1.1/DTD/svg11.dtd">
<svg version="1.1" id="Layer_1" xmlns="http://www.w3.org/2000/svg" xmlns:xlink="http://www.w3.org/1999/xlink" x="0px" y="0px"
	 viewBox="0 0 612 792" enable-background="new 0 0 612 792" xml:space="preserve">
<g>
	<g>
		<path id="SVGID_1_" fill="#FFFFFF" d="M256.3,321.5v-39.2V243c0,0-7.8-60.2,60.2-60.2h102V243h-39.2c0,0-39.2,0-39.2,39.2v39.2
			h81.1l-20.9,60.2H340v198.8h-83.7V381.6h-62.8v-60.2H256.3z"/>
	</g>
	<g>
		<defs>
			<path id="SVGID_2_" d="M256.3,321.5v-39.2V243c0,0-7.8-60.2,60.2-60.2h102V243h-39.2c0,0-39.2,0-39.2,39.2v39.2h81.1l-20.9,60.2
				H340v198.8h-83.7V381.6h-62.8v-60.2H256.3z"/>
		</defs>
		<use xlink:href="#SVGID_2_"  overflow="visible" fill="#FFFFFF"/>
		<clipPath id="SVGID_3_">
			<use xlink:href="#SVGID_2_"  overflow="visible"/>
		</clipPath>
		<rect x="115.1" y="104.4" clip-path="url(#SVGID_3_)" fill="#FFFFFF" width="381.8" height="554.5"/>
	</g>
</g>
</svg>
