<?xml version="1.0" encoding="utf-8"?>
<!-- Generator: Adobe Illustrator 18.0.0, SVG Export Plug-In . SVG Version: 6.00 Build 0)  -->
<!DOCTYPE svg PUBLIC "-//W3C//DTD SVG 1.1//EN" "http://www.w3.org/Graphics/SVG/1.1/DTD/svg11.dtd">
<svg version="1.1" id="Layer_1" xmlns="http://www.w3.org/2000/svg" xmlns:xlink="http://www.w3.org/1999/xlink" x="0px" y="0px"
	 viewBox="0 0 23.4 19.9" enable-background="new 0 0 23.4 19.9" xml:space="preserve">
<g>
	<defs>
		<path id="SVGID_1_" d="M-97.2,4.8c1,0,1.8,0.4,2.4,1c0.6-0.2,1.4-0.4,2.1-0.8c-0.1,0.6-0.4,1.5-1.4,1.9c0,0,0,0,0,0
			c0.5-0.1,1.3-0.3,1.8-0.7c0.8-0.5-0.5,1.1-1.6,1.9v0.3v0.3c0,5.1-4,9.3-9,9.3c-1.9,0-3.6-0.6-5-1.5c1.9,0.5,4.3-0.8,4.7-1.3
			c-2.4-0.2-3-2.4-3-2.4s1.2,0.2,1.3-0.2c-2.5-0.5-2.5-3.2-2.5-3.2s0.9,0.5,1.2,0.3c-2.1-2.1-0.8-4.4-0.7-4.5
			c1.4,2.2,3.7,3.2,6.7,3.6c0-0.3-0.1-0.5-0.1-0.8C-100.4,6.2-99,4.8-97.2,4.8z"/>
	</defs>
	<use xlink:href="#SVGID_1_"  overflow="visible" fill-rule="evenodd" clip-rule="evenodd" fill="#FF008A"/>
	<clipPath id="SVGID_2_">
		<use xlink:href="#SVGID_1_"  overflow="visible"/>
	</clipPath>
	
		<rect x="-113" y="-0.2" clip-path="url(#SVGID_2_)" fill-rule="evenodd" clip-rule="evenodd" fill="#FF008A" width="25.9" height="23.2"/>
</g>
<g>
	<defs>
		<path id="SVGID_3_" d="M9.8,7.7V6.2c0,0,0-1.5,0-1.5s-0.3-2.3,2.3-2.3h3.9v2.3h-1.5c0,0-1.5,0-1.5,1.5v1.5h3.1L15.2,10h-2.3v7.6
			H9.8V10H7.4V7.7H9.8z"/>
	</defs>
	<use xlink:href="#SVGID_3_"  overflow="visible" fill-rule="evenodd" clip-rule="evenodd" fill="#FF008A"/>
	<clipPath id="SVGID_4_">
		<use xlink:href="#SVGID_3_"  overflow="visible"/>
	</clipPath>
	
		<rect x="4.4" y="-0.6" clip-path="url(#SVGID_4_)" fill-rule="evenodd" clip-rule="evenodd" fill="#FF008A" width="14.6" height="21.2"/>
</g>
</svg>
