<?xml version="1.0" encoding="utf-8"?>
<!-- Generator: Adobe Illustrator 18.0.0, SVG Export Plug-In . SVG Version: 6.00 Build 0)  -->
<!DOCTYPE svg PUBLIC "-//W3C//DTD SVG 1.1//EN" "http://www.w3.org/Graphics/SVG/1.1/DTD/svg11.dtd">
<svg version="1.1" id="Layer_1" xmlns="http://www.w3.org/2000/svg" xmlns:xlink="http://www.w3.org/1999/xlink" x="0px" y="0px"
	 viewBox="0 0 612 792" enable-background="new 0 0 612 792" xml:space="preserve">
<g>
	<g>
		<defs>
			<path id="SVGID_1_" d="M483.1,638.7L483.1,638.7h-0.6v0.6l0,0l0.6,0.6l0.6,0.6v-0.6L483.1,638.7L483.1,638.7z M476.4,642.6
				L476.4,642.6l0.6,0.6l0.6-0.6H476.4L476.4,642.6z M479.7,553.5l-0.6,0.6v0.6l1.7,0.6h0.6l0.6-0.6V554h-0.6h-0.6L479.7,553.5
				L479.7,553.5L479.7,553.5z M479.2,637l-2.2-1.7h-0.6l0,0l0,0l4.5,7.3v2.2l1.7-1.1l-1.1-2.8L479.2,637z M476.9,553.5l0.6,1.1l0,0
				l0,0l0,0l0,0V554l0.6-0.6h0.6h0.6v-0.6l-0.6-0.6h-0.6l-1.1-1.1l-0.6-0.6v-0.6l-0.6,0.6v0.6v0.6v1.7h0.6L476.9,553.5L476.9,553.5z
				 M474.7,552.4L474.7,552.4v-1.1l0,0v-0.6l-1.1-1.7l-0.6-0.6h-1.1h-0.6l-0.6,0.6l-1.1,0.6v1.1l0.6,0.6l0,0v0.6l0,0v-0.6v-0.6v-0.6
				h0.6h0.6l0,0h1.1l0.6,0.6v0.6l0.6,0.6L474.7,552.4L474.7,552.4z M474.7,640.4L474.7,640.4h-0.6H474.7L474.7,640.4l-1.1,0.6v0.6
				l0.6,0.6v0.6h0.6V642v-1.1V640.4z M487.6,641.5l-1.1,1.1l0,0l0.6-0.6L487.6,641.5L487.6,641.5L487.6,641.5z M529.1,607.8l1.1,0.6
				v-0.6H529.1z M526.8,605.6l0.6,0.6L526.8,605.6L526.8,605.6z M529.1,606.7L529.1,606.7l-0.6,0.6L529.1,606.7L529.1,606.7
				L529.1,606.7z M498.2,637.5l-1.7,0.6h2.2l0.6,0.6l0.6,1.1l0.6-1.1l0.6-0.6l0.6-0.6l1.7-0.6l0,0v-0.6h-1.7L498.2,637.5z
				 M525.7,615.7L525.7,615.7L525.7,615.7L525.7,615.7z M472.5,640.4L472.5,640.4l-0.6-0.6h-0.6h-0.6h-0.6l0,0l-0.6,0.6v1.1l0.6,0.6
				l0,0l0,0h0.6h0.6h0.6h0.6l0.6,0.6l0.6,0.6v-0.6v-1.7L472.5,640.4z M526.3,626.3l-0.6,0.6l-0.6,0.6v0.6h0.6l1.1-0.6l0.6-0.6
				l0.6-1.1v-0.6L526.3,626.3z M521.2,629.1L521.2,629.1l-0.6,0.6v-0.6v-0.6l-3.4,2.2l-0.6,1.1h2.8l1.1-0.6l0.6-0.6l0.6-0.6
				L521.2,629.1L521.2,629.1L521.2,629.1z M504.4,637.5l5-2.2l1.1-1.1h1.1h0.6h0.6v-1.1l-2.2,0.6L504.4,637.5z M523.5,612.9l0.6,0.6
				L523.5,612.9L523.5,612.9L523.5,612.9z M456.8,547.9L456.8,547.9l0.6,1.1h0.6h1.1l0.6-0.6l1.1-1.7v-0.6l-1.1-0.6h-1.1h-0.6h-0.6
				v0.6L456.8,547.9L456.8,547.9L456.8,547.9z M418.6,486.2v-1.7l-0.6-0.6l0,0h-0.6l1.1,3.9l0.6,1.7l1.1,1.7v-1.7L418.6,486.2z
				 M252.2,236.8l-1.7,1.1l-2.8,1.7l-0.6,0.6l3.9-1.1l1.7-1.1l0.6-1.7h-0.6L252.2,236.8z M391.2,430.7l-1.7-3.4l-0.6-0.6l-1.1-0.6
				l0.6,1.1l1.1,1.1l0.6,0.6l0.6,1.1l2.8,3.4l1.1,1.1v-1.1L391.2,430.7z M417.5,479.5l-0.6-1.7l-0.6-1.7l-0.6-0.6l0,0l-0.6,0.6
				l0.6,1.7v3.9l0.6,1.7l0.6-1.7L417.5,479.5z M362,290.6L362,290.6l-1.1-0.6l-0.6,0.6v1.1l0.6,0.6l1.1-0.6h0.6L362,290.6L362,290.6
				z M242.7,243l-1.1,0.6H241v0.6l0,0h-0.6h-0.6v0.6v0.6v0.6l-15.7,6.7l-3.4,0.6h-1.7l-1.7-1.1h-1.1l1.7,1.1l1.7,0.6h3.9l1.7-0.6
				l4.5-2.2l1.7-1.1l7.3-2.8L242.7,243l1.1-0.6v-0.6l0.6-0.6h0.6v-0.6l-1.1,0.6L242.7,243z M546.4,395.4l2.2,5.6l1.1,2.2v0.6v1.1
				l0.6,1.7l0.6,2.2l0.6,1.1l0.6,1.1l0.6,1.1l2.8,11.8l1.1,2.2v1.1v0.6l1.1,0.6v0.6v1.1l4.5,9.5l0.6,2.8l1.7,1.7l1.1,2.2l-0.6-1.7
				l-12.3-31.9v-1.1V410l-0.6-1.7l-1.1-2.8l-2.8-5l-1.7-3.4l-0.6-3.4v-0.6l0,0l0,0v-0.6h-0.6l0,0l0,0L546.4,395.4z M105.4,188.6
				l-2.2,0.6l-0.6-0.6l-1.7,0.6l-7.3,1.1h-3.4h-1.1l-1.7,0.6h-0.6l-1.7,0.6h-5l-3.9,1.7l-9,1.7h-5.6l-1.1,0.6l3.9,0.6l48.2-6.2
				l0.6,0.6h0.6h0.6l0.6-0.6l-6.7-1.1L105.4,188.6z M216.9,248.6L216.9,248.6v-1.1l0,0h-1.1l-1.1-0.6H213l-1.1,1.1h-1.1l-2.8-0.6
				l0.6,0.6l1.7,0.6l0.6,0.6l0.6,0.6l0.6,0.6l0.6,0.6h0.6l1.7,0.6h0.6l0.6-0.6v-0.6l0.6-0.6L216.9,248.6z M430.4,503h-1.1l-2.2-0.6
				l-1.1-0.6l-1.1-1.1l-0.6-1.1l-1.7-1.1v-1.1v-0.6l-0.6-0.6l-0.6-0.6l0.6,2.2l0.6,2.2l0.6,1.1l0.6,1.1l0.6,0.6l4.5,2.2h1.1l1.1-0.6
				l1.7-1.7l1.1-0.6l-2.8-1.7L430.4,503z M460.1,647.1l-1.7,0.6h-0.6l-0.6-0.6h-0.6l-0.6,0.6v0.6v0.6l0.6,0.6v0.6l-0.6,0.6h-0.6
				l5.6-1.7L460.1,647.1L460.1,647.1z M454.5,648.8L454.5,648.8l-0.6-0.6h-0.6l-1.7,1.1h-0.6h-0.6H450h-0.6l-0.6,1.1l2.2-0.6
				l1.1-0.6l0.6-0.6l0.6-0.6v-0.6l0.6,0.6l0,0l0,0l0,0L454.5,648.8l-0.6,1.1l0,0h0.6V648.8L454.5,648.8z M531.9,610.1L531.9,610.1
				v-0.6V610.1L531.9,610.1z M468,640.4L468,640.4L468,640.4h-0.6H468l-1.1-0.6l-0.6,1.7h0.6h0.6v0.6l-0.6,0.6v0.6h1.1l0.6,0.6v0.6
				l-0.6,1.1h-0.6l-0.6-1.1l-1.1-0.6l-2.2-0.6l0.6,0.6l0.6,0.6l1.1,0.6l-0.6,0.6l0,0l0,0l-0.6,0.6l-1.7,0.6l-0.6-0.6l-0.6,0.6
				l-1.1,1.1v0.6l5-1.7l2.2-1.1l2.8-1.1v-0.6l-2.2-2.8L468,640.4z M468.5,546.8L468.5,546.8l-1.1-0.6v0.6v0.6l0.6,0.6h0.6v0.6v1.1
				v0.6l0.6-1.1v-0.6v-0.6L468.5,546.8L468.5,546.8L468.5,546.8L468.5,546.8z M427.1,485.7l-1.1-1.7l-1.7-0.6h-1.1l1.1,2.2l1.1,2.2
				l1.1,2.2l-0.6,2.8l1.1,1.7l1.1,3.9l1.1,1.7l1.1,0.6v-1.1l-0.6-3.9l-0.6-1.1l-1.1-1.7l-0.6-1.7l0.6-2.8L427.1,485.7z M427.1,647.1
				h-1.1h-0.6l0,0h0.6h0.6H427.1l0.6,0.6l0.6,1.1v0.6v-0.6v-0.6L427.1,647.1z M426.5,650.4L426.5,650.4h0.6l0.6-0.6h-0.6
				L426.5,650.4z M498.8,591l0.6,0.6l0.6,0.6v-0.6V591v-0.6v-0.6h-0.6h-0.6l0,0l0,0h-0.6l-0.6,0.6L498.8,591z M387.8,311.4
				L387.8,311.4h0.6l0,0H387.8L387.8,311.4v-0.6h-0.6l0,0l0,0L387.8,311.4L387.8,311.4z M378.9,294.6L378.9,294.6l-0.6-0.6h-0.6
				h-0.6v0.6v0.6L378.9,294.6L378.9,294.6z M386.1,319.8L386.1,319.8l0.6,0.6v0.6v0.6l0,0h0.6h0.6l0.6-0.6v-0.6l-0.6-0.6l-1.1-0.6
				L386.1,319.8L386.1,319.8z M383.9,313.6L383.9,313.6v0.6V313.6L383.9,313.6z M383.3,319.2L383.3,319.2L383.3,319.2L383.3,319.2
				L383.3,319.2z M389.5,338.8L389.5,338.8L389.5,338.8v-0.6h-0.6L389.5,338.8L389.5,338.8L389.5,338.8L389.5,338.8z M385.6,324.8
				L385.6,324.8h0.6l0,0H385.6L385.6,324.8L385.6,324.8z M385,312.5L385,312.5L385,312.5L385,312.5L385,312.5L385,312.5h0.6H385
				L385,312.5L385,312.5L385,312.5L385,312.5z M383.9,317L383.9,317h0.6h0.6l0,0h0.6l0,0l0,0H385H383.9L383.9,317z M386.7,313.1h1.1
				h0.6h0.6l0,0l0,0h-0.6h-0.6h-0.6H386.7L386.7,313.1z M534.1,336.6l-1.1-2.2h-1.1l-1.1,0.6l-1.1,1.1l-1.7,1.1l-0.6,0.6l-0.6,1.1
				h-1.7l-0.6,2.2v2.8l0.6,1.1l0.6,6.2l0.6,1.7l1.1,1.7l2.2,7.8l1.1,2.2v-1.1l-0.6-1.1l-0.6-1.7v-1.1V359l0.6-1.7l0.6-9.5l0.6-2.8
				l2.2-5L534.1,336.6z M390.1,311.9l-0.6-0.6h-0.6L390.1,311.9l-0.6,0.6v0.6v0.6v0.6l0.6,0.6l0,0l0,0l0,0V311.9L390.1,311.9z
				 M531.9,365.7v1.1v1.1h0.6v-0.6l-1.1-3.4L531.9,365.7z M388.9,332.1L388.9,332.1L388.9,332.1L388.9,332.1L388.9,332.1
				L388.9,332.1l-0.6-0.6l0,0L388.9,332.1L388.9,332.1z M387.8,329.3L387.8,329.3L387.8,329.3L387.8,329.3z M388.4,326.5
				L388.4,326.5L388.4,326.5L388.4,326.5L388.4,326.5z M389.5,322L389.5,322h-1.1v0.6L389.5,322L389.5,322z M387.8,323.7
				L387.8,323.7h-0.6v0.6L387.8,323.7l-1.1,0.6l0,0l0,0l0,0l1.1,0.6v0.6l0,0h0.6l0,0l0.6-0.6v-1.1H387.8L387.8,323.7z M501,592.7
				v1.1l0.6,1.1h0.6l0.6-0.6v-0.6l0.6-1.1v-0.6h-0.6h-1.1h-1.1L501,592.7z M539.7,601.1L539.7,601.1L539.7,601.1l-0.6,0.6v0.6l0,0
				h0.6V601.1z M543.6,607.3v-1.1V607.3h-1.1v0.6l0,0v0.6l0,0L543.6,607.3L543.6,607.3z M563.2,577.6L563.2,577.6l-1.1,5l-0.6,1.1
				l-1.1,0.6l0,0l0,0l0,0l1.1-1.1l1.1-1.7l0.6-1.7v-1.7V577.6V577v-0.6V577.6z M565.5,559.6L565.5,559.6l-0.6,0.6l-0.6,0.6v0.6h0.6
				l0,0l0,0l0,0l-0.6,0.6v0.6l0.6,0.6h1.1l0.6-0.6V558L565.5,559.6L565.5,559.6z M535.8,603.4L535.8,603.4v-0.6h-0.6l-0.6,0.6v0.6
				L535.8,603.4z M531.3,607.3L531.3,607.3L531.3,607.3v0.6v0.6l0,0l0,0v-0.6V607.3L531.3,607.3L531.3,607.3z M511.1,596.6
				L511.1,596.6l0.6,1.7l0,0v-0.6v-0.6l-0.6-1.1l-0.6-0.6l-0.6,0.6L511.1,596.6L511.1,596.6L511.1,596.6z M557.1,589.4l-2.2,2.8
				l-1.1,0.6l-2.2,0.6v0.6v1.1l0.6,0.6l0.6,0.6v1.1l-0.6,1.7l-2.8,2.8l-1.1,3.4l-3.4-0.6l-0.6,1.1l1.1-0.6l0.6,0.6l0.6,0.6v1.1h-0.6
				l0,0v0.6l0.6,0.6l-0.6,1.1l-0.6,0.6h-1.7v1.1l-0.6,1.1l-1.7,1.7l-1.1,1.7l-0.6,0.6h-1.1l-0.6,0.6l-0.6,2.8l-0.6,0.6h-1.1
				l-0.6,0.6l0.6,1.1h1.1l1.7-1.7l2.8-3.4l2.2-1.7l0.6-0.6l0.6-1.7l0.6-0.6h0.6l0.6-0.6l5.6-5.6v-0.6l-0.6-1.1l1.1-1.7l2.2-3.4
				l2.2-2.8l0.6-0.6v-0.6l0.6-1.1l0.6-1.1l0.6-0.6h0.6l0,0v-0.6v-0.6l-1.7-0.6L557.1,589.4z M533,620.7l-2.2,2.8h0.6l1.7-1.7V620.7
				h0.6H533L533,620.7z M498.8,588.8L498.8,588.8l-0.6,0.6h0.6h2.2l0,0h-1.1L498.8,588.8z M503.3,591.6l0.6-0.6v-0.6l-1.1-0.6h-0.6
				v0.6v0.6l0.6,0.6H503.3z M575,482.9l-0.6-2.2l-1.1-1.1v-0.6l1.1-1.1v-2.2l-1.7-7.3l-0.6-0.6l-0.6-0.6l-1.7-0.6l-1.1-0.6v-1.1
				l0.6-0.6h0.6h0.6l0.6-1.1v-1.1l-1.1-2.8l-1.7-4.5l-1.7-3.4v-1.1l-0.6-1.1l-2.2-1.1l-0.6-1.1l-2.8-2.8h-0.6l-1.7,0.6h-0.6
				l-1.1-0.6H556l-1.7-2.2l-0.6-0.6h1.1l0.6,0.6l0.6,0.6l0.6,0.6l1.7,0.6l2.8,0.6l0.6,0.6l0.6,1.7v-1.1l-9-25.2l-2.2-11.8
				l-22.4-49.9l-0.6-1.7l-2.2-4.5l-1.1-4.5l-0.6-1.7l-2.8-7.8v-3.4v-1.7l-2.2-4.5l0.6-0.6v-0.6l-0.6-1.7l-1.7-6.7l1.1,0.6l2.2,2.2
				l2.8,1.1v1.7l-0.6,1.7l-0.6,1.1l-0.6-0.6l-0.6,1.1v1.7v1.7l0.6,1.1l1.1,1.1l1.1,0.6l4.5,0.6h0.6h1.1l0,0v-1.1v-0.6h0.6h0.6h0.6
				l0,0h1.7l1.1,0.6l0.6,0.6l0.6,1.1l0.6,3.4v3.4l-2.2,10.1v13.5l0.6,3.4l2.2,6.2l3.9,7.3l0.6,2.8l2.2,2.2l0.6,0.6v0.6l1.7,3.4v-3.4
				l-5.6-8.4l-2.2-3.4v-1.1l-1.1-2.2l-1.7-7.8l-0.6-4.5v-1.7l-0.6-0.6l0.6-1.1V350v-0.6h0.6l0.6-0.6l0.6-0.6v-0.6h0.6l1.1-1.7
				l1.1-1.7l-1.1-1.7l-1.7-5l-3.4-7.3l-3.9-5.6l-4.5-8.4l-9.5-15.1l-0.6-1.7l-0.6-1.7l-1.1-1.1h-0.6l0.6-1.7l-6.7-12.3l-4.5-12.9
				l-4.5-9.5l-3.4-5.6l-0.6-1.7v-0.6v-1.7l-0.6-1.7l-2.2-3.9l-0.6-4.5l-0.6-0.6l-0.6-1.1l-0.6-3.9l-0.6-1.1l0.6-0.6l-0.6-0.6
				l-0.6-0.6v-0.6l0.6-0.6H487l-0.6-0.6h-0.6l0.6-2.8l-2.2-9.5l-1.1-5.6l-0.6-1.7l-1.7-2.8l0-1.1l-2.2-9v-3.4l0.6-3.4v-0.6l-0.6-0.6
				l-0.6-0.6v-0.6v-2.8v-1.1l-1.1-0.6l-0.6-0.6h-0.6l-0.6-0.6l-0.6-0.6l-0.6-1.1l-0.6-0.6l-1.7-1.7v-0.6l-1.1-0.6l-0.6-1.1v-1.7
				v-1.7v-1.7v-0.6h0.6h0.6l0.6,0.6l0.6,0.6v0.6v1.7v1.7l0.6,1.1l1.1,0.6v-2.2v-6.7l0.6-2.2v-1.1l-0.6-0.6l0,0v-0.6v-0.6h-0.6H473
				l-1.1,0.6h-0.6l-1.7-0.6V164h-0.6l-1.1-0.6l-2.2,0.6h-0.6l-2.8-0.6l-0.6-0.6l-1.1-0.6h-0.6h-0.6H459l-2.8,0l-1.1-0.6l-0.6-0.6
				l-0.6-0.6l-0.6-0.6h-1.1h-0.6h-0.6l-6.7-2.8l-0.6-0.6h-0.6l-1.1-0.6h-0.6h-0.6h-0.6h-1.1h-0.6h-0.6l-0.6,0.6v0.6v0.6l0,0v0.6v0.6
				v0.6h-0.6h-0.6H436h-0.6h-0.6v0.6v1.1v0.6v0.6l-0.6,0.6v0.6v0.6v0.6v0.6v2.2v0.6v0.6l-2.2-0.6v0.6v1.1v0.6v0.6l0.6,0.6l1.1,1.7
				l0.6,0.6v0.6v0.6v1.1l-1.1,5.6l-1.7,5v1.1v0.6v2.2v0.6v0.6v0.6H431l-1.7,0.6h-0.6h-0.6l-1.1-0.6h-0.6l-3.4,0.6h-0.6H422h-0.6V192
				l-0.6-0.6l-1.1-2.8v-0.6v-0.6V187v-1.1l0.6-1.1v-0.6v-0.6V183v-0.6l-0.6-0.6h0.6l-1.7-2.2l-0.6-0.6v-0.6V178v-0.6l0.6-0.6v-0.6
				l0,0l0,0h-2.8H413h-3.4h-3.9l-4.5-0.6l-5-0.6l-5.6-0.6l-6.2-0.6l-6.7-0.6h-7.3l-7.3-0.6l-7.3-0.6l-7.8-0.6l-7.8-0.6l-7.8-0.6
				l-7.8-0.6l-7.8-0.6l-7.8-0.6l-7.8-0.6l-7.8-0.6l-7.3-0.6l-7.3-0.6l-6.7-0.6l-6.2-0.6l-6.2-0.6l-5.6-0.6l-5-0.6l-4.5-0.6H241h-2.8
				h-2.2h-1.1h-0.6H232h-0.6l-3.4-3.4l-1.1-5.6v-3.4l-0.6-1.7l-1.1-1.7l-0.6-0.6l-0.6-2.2l-0.6-1.1l0.6,0l-1.1-1.1l-0.6-0.6V141l0,0
				H121.6h-11.2H39.2v1.1v3.9v0.6l-1.7,3.4v0.6v0.6v0.6v0.6l0.6,0.6l0.6,1.1l0.6,1.1l3.4,3.4l0.6,0.6l1.7,2.8l1.1,1.1l1.1,0.6
				l5.6,3.4v1.1v0.6v0.6v1.1l-0.6,2.8l-0.6,2.2l-1.1,1.7v0.6v0.6v1.1l1.1,3.9l0,0l1.1,0.6l0.6,1.1h0.6h1.7H56l0.6,0.6l0.6,1.1v1.1
				l-0.6,0.6l-1.7,0.6l-1.1,1.1l-2.2,2.2v0.6l1.1,0.6v0.6l-0.6,0.6l-0.6,0.6h-1.1h-1.7l-1.7,1.1l1.1,0.6l1.1,0.6l-2.8,0.6H46
				l-0.6,0.6l-0.6,0.6l0,0l-0.6,0.6v0.6l0.6-0.6l1.7-0.6h0.6l1.1-0.6l10.1-2.2l1.7-0.6v-1.7h0.6h1.7l0.6-0.6v-0.6v-2.2v-0.6l1.1-0.6
				h1.7l1.1-0.6l0.6-1.7h0.6l0,0l0,0h0.6l1.7-3.4v-1.1l-0.6-1.7l-0.6-1.7l-0.6-1.1v-2.8v-1.1h1.1l0.6,0.6l0.6,0.6l0.6,0.6h1.1v0.6
				v1.1v0.6H74l0.6,1.1v1.7l0.6,1.1l-0.6,1.1v1.1l0.6,1.1h1.1l0.6-1.1l0.6-2.8l1.1-1.7l1.7-4.5l0.6-0.6v-0.6l-0.6-1.7l1.7,1.1
				l0.6,1.7l0.6,1.1l1.1-1.1l0.6,0.6l0,0v0.6l-2.2,1.1l-1.7,1.7l-0.6,1.1v0.6l0.6,0.6h0.6h0.6l0.6,0.6l1.1,1.7l0.6,0.6h1.1l1.7,0.6
				l1.7,0.6l1.1,1.1v1.1l-1.1-0.6l-1.1-0.6l-1.1-0.6l-4.5,3.9h-1.1h-3.9l-5,0.6l-2.8,1.1h-0.6l-0.6,0.6l-0.6,1.1l3.4-0.6l7.3-1.7
				l11.2-1.7H93l2.2-0.6l1.7-0.6l1.7,0.6l5.6-0.6l5.6,0.6l0.6-0.6V187v-0.6h1.7h1.1l1.1-1.1h0.6h1.1l1.1-0.6l0.6-0.6l0.6-0.6V183
				l-0.6-2.2v-1.1l0.6,1.1l0.6,0.6h0.6l0.6-1.1l0.6-0.6h0.6h1.7l-1.7,2.2l-0.6,1.1l1.1,1.1h1.1l1.1-0.6l1.1-0.6l1.1-0.6h1.1l2.8-0.6
				h1.1l2.8,0.6h1.7l1.1-1.1l1.1,2.2l1.1,0.6h1.1l1.7-1.1v1.1l0,0.6l-0.6,0.6l0.6,1.1l2.2,2.2v0.6l0.6,0.6v1.1l-0.6,0.6l-1.1-1.1
				h-1.1l-3.4-1.1l-1.7-1.7l-1.1-0.6h-1.1l-1.1,0.6v0.6l1.1,0.6h1.1h0.6v0.6l-0.6,0.6l-0.6,0.6l-3.4-0.6l-0.6-0.6l-0.6-1.1L130,187
				l0,0l0,0h-0.6l-0.6,0.6l0,1.1v1.1l-1.1,0.6l-4.5-1.1h-5.6l-1.1-0.6l0,0l0,0l0,0l1.7,1.1l8.4,1.1l12.3,3.4l9,2.8l8.4,4.5l6.2,2.8
				l8.4,6.2l1.7,0.6l-0.6-0.6l-0.6-0.6h0.6l1.1,1.1l0.6-1.1l-1.1-1.1l-1.1-0.6l-0.6-1.1l1.1-1.7l-1.1-1.1l-0.6-1.1l-0.6-0.6
				l-1.1-0.6H167l-1.1,0.6h-0.6l-1.1-1.1l-1.7-0.6l0.6-1.1l1.1-0.6l1.1-0.6h2.2l0.6-0.6l0.6-1.7l1.1,1.7l1.1,1.1l0.6,1.1v1.1h1.1
				h1.1l0.6-1.1l0.6-0.6l1.1-0.6l1.1-0.6h0.6l0.6,1.1l1.1-1.1l1.7-2.8l0.6-0.6l0.6,0.6l0.6,1.1l1.1,1.7h-1.7l-2.8,3.4l-1.7-0.6h-1.1
				l-2.8,3.9l-1.7,1.1l0.6,0.6l0.6,0.6l0.6,0.6l2.2,1.1l0.6,0.6l0.6,1.1l1.1-0.6l1.7,0.6l1.7,1.1l1.1,0.6v-0.6v-0.6v-0.6v-0.6
				l1.1,0.6l1.1-0.6l1.1-0.6h1.1v0.6l-1.1,1.1v1.1l0.6,0.6l1.1-0.6v1.1v2.8l0.6,1.1l1.1,0.6l0.6-0.6l1.1-1.7l0.6-0.6l0,0v0.6
				l0.6,0.6h0.6h1.1h0.6l0.6,1.1l-0.6,0.6l-1.1,0.6l-0.6,0.6l-1.1,0.6l-2.2-1.1l-2.2-1.7l-1.1-1.7l-1.1-1.1l-4.5-1.7v-1.7l-4.5-0.6
				h-0.6l0.6,1.1l3.4,3.4l1.1,0.6l9,7.3h-1.7l-1.7-1.1l-1.7-1.7l-0.6-1.1h-0.6v0.6v0.6v0.6l0.6,0.6l2.2,1.7l7.8,3.9l1.1,1.1l1.1,1.1
				l1.1,1.7l0.6,1.7l0.6,1.1l2.2,2.8l0.6,1.7l-0.6,5.6v1.1v0.6l0.6,1.1l-0.6,0.6l-0.6,0.6H199l-0.6-0.6l-2.2-2.8l-0.6-1.7l-0.6-1.7
				v-1.7v-5.6v-0.6l-1.1,1.7v3.9l1.1,6.7l1.1,1.1l1.1,1.1l1.1,0.6l2.8-1.1h1.7l1.7,0.6h1.7l8.4-2.8h2.8l5.6,0.6l1.1-0.6l1.7-2.2h1.7
				l1.1-2.2l1.1-0.6l1.1-0.6l1.1-0.6l1.1-0.6l1.1,0.6l-2.2,3.4l-0.6,0.6l0.6,1.7h0.6l1.1-1.1l1.1-0.6l1.1-0.6l1.1-0.6l1.7-1.1
				l1.1-0.6h1.7l1.1-0.6l3.4-3.4l2.2-1.7l3.4-1.1l2.8-2.2l3.9-2.2l0.6,0.6h1.1l1.1-0.6h1.1h2.8l2.8,1.1v0.6l-0.6,0.6l-0.6,1.1
				l2.2-1.1l1.1-1.7l-0.6-1.7l-2.2-0.6l-3.9-1.7l-0.6-0.6v-1.1v-0.6h-1.1l1.1-1.1l1.1,0.6l1.1,1.1l2.2,0.6l1.7,0.6h1.1v-0.6
				l-1.7-1.7l-0.6-0.6v0.6l-0.6,0.6v0.6l-0.6-0.6v-0.6v-0.6l0,0l0,0v-0.6l0.6-0.6l0,0l0,0h0.6v-1.1l0.6-0.6l2.8-1.1h0.6h2.2v-0.6
				l0.6-1.1l0.6-1.1l0.6-0.6h0.6h0.6l0,0l0,0h1.7h0.6l0.6-0.6h0.6h0.6l0,0l0,0l0,0l0.6,0.6l0.6,1.1l0.6,0.6l0.6-0.6l1.7-1.1l5-0.6
				l2.2-1.1h1.1l5,4.5l6.7,3.9l3.4,1.1l1.7-0.6l1.7,1.7l1.1,0.6l1.1,0.6l1.1,0.6l3.4,2.2l0.6,0.6l0.6,1.1l2.8,2.8l0.6,1.7l0.6,0.6
				l0.6,0.6l0.6,0.6l0.6,0.6l0.6,1.7v0.6l0.6,1.1l1.1,1.7l1.1,1.7l1.1,1.1l2.2,1.1l-1.1,1.7l0.6,0.6l0.6,0.6l1.7,0.6h1.1l1.1,0.6
				l0.6,1.1l0.6,1.7v1.7l-0.6,2.2l-0.6,1.1l0.6,0.6l0.6,1.1v1.1l-0.6,0.6l1.7,1.1l1.1,0.6h0.6l3.4,4.5l1.7,1.7l1.7-0.6l1.7,1.1
				l1.1,1.1l2.2,2.8l1.1,2.2l0,0v1.7v0.6v0.6l0.6,0.6l1.1,0.6l1.1,0.6h1.1l1.1,0.6l0.6,1.1l0.6,1.1l0.6,0.6l-0.6,0.6v0.6l0.6,0.6
				h1.1l0.6,0.6v1.1l0.6,1.1l1.1,0.6h1.1h0.6l1.1-0.6h1.1h2.2h0.6l1.1,0.6l1.7,0.6h1.7l1.7-1.1l0.6,0.6l0.6,0.6l0.6,0.6l0.6-0.6
				l1.7-0.6v1.7v1.1l0.6,1.1l1.1,0.6l-1.7,1.1l0.6,1.1l2.8,2.2v0.6v2.2v0.6l-0.6,0.6l0.6,0.6l0.6,0.6h0.6l-0.6,1.7l0.6,1.1l2.8,3.9
				l0.6,0.6h0.6h1.1h0.6l0.6,1.1v1.1l-0.6,3.9v1.1l0.6,2.2l-1.7-2.2l-1.1-0.6l-1.1,1.1v0.6l1.1,1.7l0.6,1.1v0.6h0.6h0.6v0.6v2.8v0.6
				v0.6v0.6l-0.6,0.6v0.6v0.6v0.6v0.6l-0.6,1.1v6.7l-0.6,2.2v1.1v4.5l-1.7,2.8v0.6v0.6l-0.6,1.1l-2.8,6.7h0.6l0,0l0,0v1.1l-0.6,1.1
				l-1.7,2.2l1.7,3.9l-0.6,1.1l-0.6,0.6l-0.6-0.6l-0.6,1.1v1.7v1.1l0.6,2.2l0.6,1.1l0.6,1.1l-0.6,0.6v1.1v2.2l-1.7,7.3l-2.2,6.2
				l-0.6-1.1v-1.1l0.6-1.1l0.6-1.1h-1.1l-0.6,1.1l-0.6,1.7v1.7v1.7l0.6,2.2v1.1l1.1,1.7l4.5,4.5l1.1,2.8v1.1l0.6,1.7l0.6,1.7h1.1
				v-1.1l-0.6-1.7l-1.1-3.4l-0.6-1.7l-4.5-4.5l-0.6-1.1v-1.1l1.1,1.1l2.8,2.2l1.1,1.7l1.1,1.7l1.1,0.6h1.7v0.6v1.7v0.6l0.6,0.6h0.6
				h1.1l1.1-0.6l0.6-1.1v-1.7l-0.6-1.1l1.1-2.2v-0.6v-0.6l1.1-1.1l0.6-0.6v-1.1l-0.6-1.7v-1.1l2.2-1.1l0.6-0.6l-2.8,0.6l-2.8-1.1
				l-2.8-1.7l-2.8-1.1l1.1-1.1l3.4-1.1l1.1-1.1h-2.8h-0.6v-0.6l0.6-0.6V382l0.6-1.1v-0.6v-0.6l-0.6,0v-0.6l2.8,2.8v-0.6l0,0h0.6
				l0.6,1.1l1.1,0.6l2.2,1.1v0.6l-1.7-0.6v0.6h2.2l1.7,0.6l1.1,1.1l0.6,2.2l-0.6,3.4v2.2l1.1,1.7h0.6h2.2l0.6-0.6v-0.6l-0.6-1.1V391
				l0.6-1.1l0.6-1.1l1.7-0.6h1.1l1.1,1.1l0.6,3.4l1.1,3.4v1.7l-0.6,1.1l-2.2,2.8l-0.6,0.6l-2.2,1.1l0,0l-1.1,2.2l-0.6,0.6h-0.6
				l-0.6,0.6v1.1v0.6l-2.2,1.7l-1.1,1.7l-0.6,1.7l-0.6,1.7l-1.7,1.1l0.6,0.6v0.6l-0.6,1.1l1.1-0.6h1.1l-0.6,1.1l-1.1,0.6l-2.2,0.6
				l-1.1,0.6h1.1l0.6-0.6l0.6,0.6l0.6,0.6h-1.7l-1.1-1.1l-1.7-0.6l-1.1,1.1l0.6,0.6l0.6,0.6h0.6l0.6-0.6h0.6v0.6v0.6l-0.6,0.6
				l-0.6,0.6l-0.6-0.6l-2.2,0l-0.6-0.6l-0.6-0.6l-1.1-2.8h-0.6v1.1l1.1,3.4l0.6,1.1l1.1,0.6l2.8,0.6l2.8,2.2l1.1,0.6l1.1,1.1
				l0.6,3.9l1.7,2.8v2.2h-0.6V438l0,0l0,0h-0.6v1.7l1.1,1.7l1.1,1.7l0.6,1.7h0.6v-2.2l0.6,0.6l0.6,1.1v1.1v1.1l-0.6-0.6v-0.6
				l-0.6-1.1l0.6,1.7l1.7,3.4l0.6,2.8l6.2,12.9l0.6,1.7l0.6,0.6h0.6l1.1,0.6l-0.6-1.1l-0.6-1.7v-1.1l1.7,2.2l2.2,6.7l2.2,1.7h0.6
				h0.6l1.1,0.6l0.6,0.6l0.6,0.6h0.6h0.6l0,0l0,0l0,0h0.6l0.6,0.6l0,0l0.6-0.6l0.6-0.6l0.6-0.6v-0.6l0.6,1.1v2.2l0.6-0.6l0.6-1.1
				V475l-0.6-3.4l-1.1-2.8l-0.6-0.6l-0.6-0.6l-0.6-2.8l-0.6-1.1l-0.6,1.1l-0.6-0.6l-2.2-2.8l-0.6-1.7v-0.6l1.7,0.6l0.6,1.1l1.7,2.2
				h1.1l1.1-0.6h0.6v1.1l1.1,1.7l0.6,0.6h0.6l0.6-0.6h1.1h1.1l0.6-1.1l1.7,0.6h1.1l1.1-0.6l2.8-0.6l1.7-1.7l1.1-0.6l-1.1,2.2
				l-0.6,0.6l-0.6,0.6l-1.7,0.6l-3.4,2.2l-1.1,1.1v1.1l1.7,1.1l1.1,0.6l0.6,0.6v1.7v1.7l-1.7,9v1.7l0.6,1.1l1.1,2.8l0.6,1.7v1.7
				l-2.8,0.6v1.1l0.6,1.1l1.1,1.1h1.1l1.1-0.6l1.7-0.6v1.1l0.6-0.6l1.7-0.6l0.6-0.6l0.6-0.6l2.2-6.2l0.6-1.1l2.2-2.2l1.1-1.1
				l1.1-0.6h1.1l1.7-1.1l1.1-0.6l-0.6,1.1l-0.6,0.6l-0.6,0.6l-0.6,0.6h-1.1l-0.6,0.6l-0.6,0.6v0.6l-3.4,2.8l-1.1,1.1l0.6,2.2
				l-1.1,2.2l-1.7,1.7l-1.7,1.1l-1.1,0.6l-0.6,0.6h-0.6H436l-0.6-1.1h-0.6l0.6,0.6v1.1v1.1v0.6l0.6-0.6l0.6,0.6l0,0l1.1-0.6l3.9,2.2
				h1.1h0.6l0.6,0.6h0.6h0.6l0.6-0.6v-1.7v-1.1l0.6,1.1l1.7,2.2l0.6,1.1l0.6,1.7v5h-0.6v-0.6h-0.6v1.1l2.2,3.9l0,0v0.6l-0.6,2.8
				l0.6,6.2l1.1,5.6h0.6v-1.1v-0.6v-0.6l0.6-0.6l1.1,5.6l1.1,2.2l2.2,1.7h-2.2v1.1l0.6,1.1l0.6,0.6h0.6h1.7h1.1v1.1l-0.6,1.1
				l-0.6,1.1l-0.6-0.6l-0.6-0.6l-0.6-0.6l-0.6-0.6l-1.7,0l0.6,2.2v0.6l0.6,0.6l0,0h0.6h0.6v-0.6l0.6-0.6l0,0v-0.6v-0.6l0.6,0.6
				l0.6,0.6h0.6h1.1l0.6-0.6l0.6-1.1l0.6-0.6l0.6,1.1l0.6,0.6l0.6,0.6h0.6v0.6l0,0l0,0l1.7,1.1h0.6l0.6-0.6h0.6h0.6l1.1,0.6l1.7,0.6
				l0.6,0.6l0.6,0.6l1.1-1.1l0.6,0.6l1.1,1.1l0.6,0.6l1.1,0.6l2.2,0.6l1.1,0.6l1.7,1.1l1.7,1.7l1.1,2.2l0.6,0.6l-2.2,1.1l-0.6,1.1
				l1.1,0.6l0.6,0.6l1.1,2.2l0.6,0.6h0.6h2.2v1.7v1.1l0.6,0.6v1.1l1.7,2.8l0.6,3.4v0.6l0.6,0.6l1.7-0.6l0.6,0.6v0.6v0.6l-0.6,0.6
				l-1.1,1.1l0.6,1.7l2.2,2.8l1.1,2.8v0.6l0.6,1.7v0.6l0.6,0.6l3.4,2.8l2.8,0.6h0.6l1.1,0.6l2.2,0.6l1.1,0.6l3.9,4.5l0.6,1.1
				l-0.6,1.7l-1.1,1.1l-1.7,0.6h-1.7l-1.1-0.6V600h0.6l0.6-0.6h0.6v-0.6l-5.6-2.2l-1.1-0.6l0,0l-1.1-2.2l-0.6-0.6l-0.6-2.2l-0.6-0.6
				h-1.1l0.6-1.1l-1.1,1.1l-1.1,2.8l-0.6,2.8v2.2l0.6,2.2l1.1,2.2l3.4,3.4h1.1l3.4-0.6h2.8l2.2-0.6h2.8h1.1l1.7-1.7h0.6l2.2-1.1
				l1.1,1.1l2.2,0.6v0.6v0.6h0.6h0.6l0,0v-0.6l0.6,0.6h0.6h0.6h0.6v-0.6l0,0l0,0v-0.6l0.6,0.6l1.1,0.6h1.1h1.1l1.1-1.1l1.1-0.6
				l1.1,0.6h0.6l0.6-0.6v-0.6v-0.6v-0.6h0.6l2.8-0.6v0.6l0,0l0,0l0,0l1.1,0.6l0.6-1.1l0.6-1.7l0.6-1.1l1.1-0.6h2.8h1.1v0.6l0,0v0.6
				h-0.6h-0.6v0.6v0.6h0.6l0.6,0.6l0.6,0.6v0.6l1.1-0.6h1.1l1.1,1.1v1.7h0.6v-1.7l-1.1-1.1l-3.9-2.2h-1.7l1.1-1.1l1.7-0.6h1.1v1.1
				l1.1,0.6l1.1,2.2l1.1,1.1v-0.6l-1.1-1.1l-1.1-1.1v-1.7v-1.1l1.1-1.1V595v-0.6l0.6-0.6l3.4-3.4l2.8-2.2v-1.1l0-1.1l-1.1-0.6
				l-0.6-0.6l0.6-1.7l0.6-1.1v-0.6l-0.6-0.6l-0.6-0.6v-1.7V577l0.6-1.7l1.1-1.7l0.6-1.1v-3.9v-1.7l2.2-2.2l1.7-3.4v-1.7v-0.6
				l0.6-0.6h0.6h0.6l0.6-0.6l1.1-1.7v-3.4l1.1-2.2l0.6-2.8l2.8-3.4h0.6v1.1v2.2l-0.6,3.4v3.4h0.6l1.1-23l-1.1-1.7v-0.6l1.1-1.1
				l0.6-2.2l1.7-11.2v-1.7l0.6-1.1v-1.1v-2.8V507l0.6-2.2l0.6-10.6h1.1l0.6-2.2L575,482.9z M532.4,607.3v-0.6l-0.6-1.1l0,0l0,0v0.6
				L532.4,607.3L532.4,607.3z M508.3,596.6L508.3,596.6l1.1-0.6l-0.6-0.6h-0.6l0,0l0,0l0,0V596.6L508.3,596.6z M509.4,598.9h0.6l0,0
				v-0.6h0.6h0.6l0,0v-0.6h-0.6H510l0,0v0.6L509.4,598.9z M392.3,416.7L392.3,416.7l-0.6,1.1l1.1-0.6L392.3,416.7L392.3,416.7z
				 M392.9,417.3L392.9,417.3L392.9,417.3L392.9,417.3z M373.8,644.8L373.8,644.8L373.8,644.8L373.8,644.8z M370.5,644.3
				L370.5,644.3L370.5,644.3L370.5,644.3z M374.4,644.3L374.4,644.3L374.4,644.3L374.4,644.3z M375.5,643.2L375.5,643.2L375.5,643.2
				L375.5,643.2L375.5,643.2L375.5,643.2L375.5,643.2L375.5,643.2z M374.4,644.8L374.4,644.8L374.4,644.8L374.4,644.8z"/>
		</defs>
		<use xlink:href="#SVGID_1_"  overflow="visible" fill="#282828"/>
		<clipPath id="SVGID_2_">
			<use xlink:href="#SVGID_1_"  overflow="visible"/>
		</clipPath>
		<rect x="9" y="113" clip-path="url(#SVGID_2_)" fill="#282828" width="594.1" height="566"/>
	</g>
</g>
</svg>
