<?xml version="1.0" encoding="utf-8"?>
<!-- Generator: Adobe Illustrator 18.0.0, SVG Export Plug-In . SVG Version: 6.00 Build 0)  -->
<!DOCTYPE svg PUBLIC "-//W3C//DTD SVG 1.1//EN" "http://www.w3.org/Graphics/SVG/1.1/DTD/svg11.dtd">
<svg version="1.1" id="Layer_1" xmlns="http://www.w3.org/2000/svg" xmlns:xlink="http://www.w3.org/1999/xlink" x="0px" y="0px"
	 viewBox="0 0 109.2 127.4" enable-background="new 0 0 109.2 127.4" xml:space="preserve">
<g>
	<defs>
		<path id="SVGID_1_" d="M92.6,90.5l-0.3-0.2l-0.1-0.1l-0.1-0.1L91.9,90l-0.3,0.3l-0.1,0.3l0.1,0.9l0.3-0.2l0.2-0.5l0.2-0.1l0.1,0.1
			l0.1,0.2l0.1,0.2l0.2,0.1l-0.1-0.3l-0.1-0.3L92.6,90.5z M95.4,87l0.3-0.5l0.1-0.4l-0.1,0l-0.3,0.4l-0.2,0.4l-0.1,0.2l-0.2,0.2
			l-0.2,0.2l0.1,0l0.3-0.3L95.4,87z M83.3,101.4l-0.1,0.1l-0.1,0.2l0.2,0l0.3-0.2l0-0.1L83.3,101.4L83.3,101.4z M94.6,90l0.9,0.8
			l0.3-0.8l0-0.1l-0.1,0L95.4,90l-0.2,0l-0.6-0.1L94.6,90z M99.4,96.1l0.6-0.7l0.1-0.1l-0.1,0l0,0l-0.8,0.9l0.1-0.1L99.4,96.1z
			 M100.8,103.4l-0.2-0.3l-0.2-0.2l-0.3,0l-0.3,0l0.1,0.2l0.1,0.1l-0.3,0l-0.3-0.1l-0.3-0.2l-0.1-0.3l-0.8-0.2v-0.1l0.2-0.1l0.2-0.1
			l0.1-0.1l0.1-0.2l-0.2-0.1l-0.1-0.2l-0.1-0.2l-0.2-0.2l-0.1,0.1l-0.2,0.1L98,101l-0.1-0.2l-0.1-0.1l-0.1-0.2l-0.1,0.1l-0.2,0.1
			l0-0.3l0-0.2l0-0.1l-0.1,0l0-0.1l0-0.1l0,0l-0.1,0l-0.2,0.4l-0.3,0.3l-0.3,0.1l-0.2-0.1l-0.1-0.2l-0.1-0.4l-0.1-0.2l-0.2-0.1
			l-0.2,0l-0.2,0.1l-0.4,0.1l-0.3,0.1l-0.2,0l-0.2-0.1L94,99.8l-0.2,0l-0.1-0.1l0-0.2l0.1-0.2l0.2-0.1h0.2l0.2,0l0.1-0.1l0-0.1
			c-0.2,0-0.3-0.1-0.5-0.1l-0.2,0l-0.2,0.1h-0.1l-0.1-0.1l-0.2,0l-0.2,0L93.1,99l-0.4-0.2h-0.4l-1.1,0.2l-0.3,0L90.7,99l-0.1-0.2
			l0.1,0l0.2,0l0.2-0.1l0-0.4l-0.3,0.2l-0.1-0.2l0.1-0.3l0.2-0.3v-0.1l-0.3,0l-0.5-0.3l-0.3-0.1l0-0.1l0,0l0.1-0.1l-0.3-0.1l-0.5,0
			l-0.4-0.3l-0.5-0.2L88,96.1l-0.1-0.2l-0.1-0.5l-0.1-0.3l-0.5-0.6l-0.1-0.3l0.1,0l0.2,0L87.2,94L87,93.9l-0.5-0.1l0.7-0.1l1.6,0.4
			l0.4-0.2l-0.5-0.5l0-0.1l0,0l0-0.1L88.2,93l0.2-0.1l0.1,0l-0.3-0.2l-0.5-0.3l-0.2-0.2l0.6,0.2l0.9,0.6l0.5,0.1l0.5,0l0.6,0.1
			l0.2,0.2l0.2,0.2l0.3,0.2l0.3,0v-0.2L91.1,93l-0.3-0.2l0.1,0l0.1,0l0.1,0l0.1,0L91,92.6l-0.4,0l-0.4,0.1l-0.4-0.1l-0.2-0.2
			L89.5,92l0-0.4l0.3-0.4l0.2,0l0.4,0.1l0.2,0l0.2-0.1l0.1-0.1l0.2-0.4l0.3-0.3l0.3-0.2l0.2-0.3l-0.1-0.4l0.3,0l0.2,0.1l0.2,0.1
			l0.2,0.2l0.2,0.4l0.1,0.1l0.2,0l0,0.1l0,0.3l0,0.1l0.2-0.2l0.2-0.4l0.2-0.2h0.1l0.4,0.1l0.2,0l-0.2-0.2L94,89.9l-0.1-0.3l-0.2-0.2
			l0.1-0.1l0.1-0.2l0.2-0.1l0.2,0l-0.1-0.1l0-0.1l-0.1-0.1l-0.1-0.1l0.1-0.1l0.4-0.2l-0.5-0.2L94,88.1l-0.1,0.1l-0.1,0.1l-0.3,0.1
			v-0.2l0.4-0.3l0.1-0.2l-0.1-0.2l-0.2,0l-0.2,0.1l-0.2,0.2l-0.1,0.2h-0.1l0-0.1l0,0l0,0L93,87.7l-0.3-0.4v-0.1l0.5-0.3l0.1,0.4
			l0.4-0.1l0.2-0.3l-0.3-0.4l-0.3-0.1l-0.5,0.1l-0.2,0l-0.2-0.1l0.1-0.1l0.2-0.1l0.1-0.1v-0.2l-0.1-0.2l0-0.2l0.1-0.2l0.2-0.1l0.5,0
			l0.3-0.1l0.2-0.2l0-0.2l-0.1-0.1l-0.3-0.1l-0.1,0l-0.4,0.3L93,84.9h-0.1l0-0.1l0,0h0l-0.1-0.1v-0.2h0.1v-0.1l-0.1-0.1l-0.4-0.2
			l-0.2,0L92,84l-0.1,0L91.7,84l-0.1,0.1l0,0.3l0,0.1l-0.1,0.2l-0.1,0.2l-0.1,0.1l-0.1,0.1L91,85.3l-0.4,0.1l-0.2,0.1l-0.3,0.2
			L90.1,86v0.8L90,87.2l-0.2,0.5l-0.3,0.4l-0.3,0.2l-0.4,0.1l-0.4,0l-0.4-0.2L87.5,88l-0.5-0.5l0.1-0.2l0.3-0.4l0-0.1l-0.2-0.1
			l-0.7,0.3L86.4,87l-0.5,0l-0.3-0.1l-0.2-0.2l-0.2-0.4L85,85.8l0-0.4l0.1-0.3l0.3-0.3l0.4-0.2l0.5,0l0.5,0.2l0.4,0.4l0.2-0.2l0-0.2
			l-0.1-0.2l0.1-0.2l0.2-0.1L88,84l0.1-0.5l0.2-0.3l0.3-0.2l0.3-0.4l-0.2-0.1l-0.3-0.4L88,82l-0.5,0.2l-0.1,0.1l0.1,0.1l0.2,0h0.1
			l0-0.1l0.1-0.1l0.1,0l0.1,0.1l0,0.2l-0.1,0.1l-0.3,0.2l-0.1,0l-0.3,0l-0.1,0l0,0.1l-0.3,0.5l-0.1-0.1l-0.1-0.1l-0.1-0.1l-0.1-0.1
			l0.1-0.2l0.2-0.6l0.2-0.3l-0.1-0.3h-0.1l-0.1,0.3l-0.1,0.3l-0.2,0.3L86,83.3L86,83.5l-0.1,0.1l-0.2,0l-0.3-0.1l-0.3-0.2l-0.3-0.2
			l-0.1-0.2l-0.1-0.3l-0.2-0.1l-0.4-0.1L83.8,83l-0.5,0.6l-1.3,1l-0.4,0.2l-0.4,0.1L79.9,85l-0.8,0.2l-0.4,0l-1.2-0.3l-0.7-0.5
			l-1.4-0.1L74.6,84L74,83.4l-0.4-0.8l0.1-1l0.5-0.7l1.4-1.2l0.5-0.7l0.7-1l0.4-0.5l0.4-0.3l0.6-0.1l0.9,0.1l0.9,0.2l0.7,0.3
			l0.9,0.8l0.2,0.1l0.1,0.2l0.4,0.8l0.2,0.2l0.9,0.2l0.2,0l0.4-0.1l0.2,0l0.4,0.1l0.7,0.6l0.4,0l0.7-0.2l0.4,0.1l0.2,0.4l0,0.2
			l-0.1,0.2l0,0.1l0.1,0.2l0.1,0.1l0.4,0.1l0.1,0.1l0.3-0.1l0.3,0l0.6,0.1l0.3-0.1l0.3-0.1l0.3,0l0.2,0.3L89.6,82l-0.1,0h-0.2
			l0.3,0.3l0.6-0.2l0.6-0.4l0.2-0.3l-0.1-0.2l-0.2-0.1l-0.2,0.1l-0.2,0.2L89.8,81l-0.6-1.3l-0.4-0.6l0-0.9l-0.1-0.4l-0.5-0.9
			l-0.1-0.4l0-0.2l0-0.4l0-0.2l-0.1-0.2L87.7,75l-0.5-0.4L86.9,74l-0.3-0.2L86,73.5l-0.3-0.3l-0.5-1.1l0.2-0.5l-0.2-0.4L85,71
			l-0.2-0.3l0-0.4l0.1-0.5l0.4-0.8l-0.1-0.4l0.2-0.4l0.5-0.6l0.3-1.3l0.4-0.8l0.2-0.8l0.1-0.8L87,63.6c-1.9,0-3.9,0-5.8,0H50.2
			l1.5-1.2l-0.1-0.6L51,61l-0.2-0.6l0-0.2l0.2-0.4l0.1-0.2l0-0.1l0.1-0.2l0-0.2l-0.1-0.1l-0.3-0.2l-0.3-0.4l-0.2-0.5l0-0.4l0.3-0.2
			l0.5,0l0.9,0l0.4-0.1l0.2-0.3l0.1-0.3l0.3-1.4l0.2-0.2l0-0.2l0-0.4l0-0.1L53,53.8l-0.2-0.3l-0.1-0.2l-0.1-1l0.4-0.7l1.3-1l0-0.2
			l0.1-0.2l0-0.5l0.4-1.9l0-0.4l0.1-0.4l0.6-1.1l0.2-0.8l0.2-0.4l0.3-0.4l0.3-0.2l0.8-0.2l0.4-0.1l0.4-0.3l0.9-1l0.1-0.2l0.2-0.5
			l0.2-0.2l0.2-0.1l0.6-0.2l0.7-0.5l0.4-0.8l0-0.8l-0.6-0.7l0-0.2l0-0.2L61,38l0.2-0.2l1,0l0.7-1.1l0.6-1.4l0.9-0.9v-0.2l0.2-0.1
			l0.1-0.3l-0.1-0.4l-0.4-0.2l-0.7-0.1L63,33.1L62.8,33l-0.2-0.9l-0.4-0.4l-0.6-0.2L61,31l-0.2-0.3l-0.1-0.4l0-0.9l0-0.2l0.1-0.3
			l0.1-0.3l0-0.3l-0.1-0.2l-0.5-0.3l-0.2-0.2l-0.2-0.3l-0.2-0.4l-0.1-0.4l0-0.5l0.2-0.3l0.5-0.1l0.5,0l0.4-0.1l0.3-0.5l-0.1-0.4
			L61,24.4l-0.9-0.2l-0.2-0.2l-0.1-0.3l0.1-0.9l0.3-1.1l0.2-0.2l0.2-0.1l0.3-0.3l0.3-0.4l0.2-0.4L61,19.8l-0.2-0.2l-0.2-0.1l-0.3,0
			l-0.3-0.1l-0.3-0.2L59.6,19l0-0.7l-0.3,0c-2.7,0-5.5,0-8.2,0c-2.9,0-5.8,0-8.7,0c-2.6,0-5.2,0-7.8,0c-3,0-6,0-8.9,0
			c-2.6,0-5.1,0-7.7,0c-3.1,0-6.2,0-9.3,0l-4,0c0,2.7,0,5.4,0,8.1c0,2.8,0,5.6,0,8.4c0,2.1,0,4.3,0,6.4l0,0l0,0.1l0.1,0.1L5,41.7
			l0.1,0.1l0.2,0.2L5.5,42l0.4,0.7l0.1,0.1L6,42.9L6.1,43l0.6,0.3l0.2,0.1l0.4,0.4l0.3,0.3l0.2,0.3l0.1,0.2l0.1,0.2L8,45.2l0.5,0.7
			l0.1,0.2L8.7,47l0.1,0.3l0.1,0.2l0.1,0.1l0.1,0.1l0,0.1l0,0.1l0,0.1l-0.1,0.4l0,0.2l0,0.6l0,0.2l0,0.1l-0.1,0.2l-0.1,0.2l0,0.2
			l0,0.2l0.1,0.2l0.1,0.1l0.1,0.2l0.2,0.3l0.5,0.6l0.2,0.1l0.1,0.1l0.1,0.1l0.5,0.1l0.1,0l0.1,0.1l0.1,0.1l0,0.1l-0.1,0.1l0,0.1l0,0
			l0,0l-0.2,0.1l-0.1,0.1l0,0.1l0,0.2l0,0.1l0.1,0.1l0.1,0.1l0.1,0l0.2,0.1l0.1,0l0.1,0.1l0.1,0.1l0.1,0.2l0.1,0.4l0.1,0.2l0.1,0.1
			l0.2,0.3l0.3,0.3l0.3,0.2l0,0.1l0,0.1l-0.2,0.3l-0.1,0.1l-0.1,0.2l0,0.1l0,0.2l0,0.2l0.1,0.1l0.1,0.1l0.5,0.4l0.2,0.2l0.1,0.1
			l0.1,0.1l0,0.1l0,0.2l0,0.2l0.1,0.1l0.1,0.2l0,0.1L13,59l0,0.1l0.1,0.1l0.1,0.1l0.1,0l0,0l0.1,0h0.1l0.4-0.1l0.3,0.1l0.1,0.4
			l-0.1,1l0,0.2l-0.2,0.3l0,0.2l0.5,0.8l0.3,0.2l0.1,0.2l-0.1,0.2L14.5,63L14,63.1l-0.2,0l-0.3,0.2l0.2,0.5l0.3,0.5l0.1,0.2l0.1,0.3
			l0,0.1l-0.1,0.2l-0.3,0.3l-0.2,0.2l-0.1,0.2l0,0.2l0.1,0.4l0,0.2l0,0.3l0,0.2l-0.1,0.4l-0.7,1.3l-0.2,1.1l-0.2,0.3l-0.7,0.5
			l-0.2,0.3l-0.3,1.1l0,0.2l-0.4,0.1l-0.3,0.3l-0.2,0.4l0,0.4l0.1,0.1l0.2,0.1l0.1,0.1l0,0.4l0,0l0.2,0.7l0,0.2l-0.1,0.4L10.9,76
			l-0.5,0.6l-0.3,0.5l-0.1,0.4l0.1,1l0.1,0.3l0.3,0.3l0.3,0.3l0.1,0.5l-0.1,0.2l-0.2,0.4l0,0.2l0,0.2l0.2,0.3l0,0.1l0,0.4l0.1,0.3
			l0,0.4L11,83.1l-0.2,0.4l0,0.2l0.1,0.3l-1.1,1.3l-0.4,0.7v0l0.2,0l0.3,0.1l0.1,0.3l-0.1,1.4L9,89.4l-0.3,0.1l-1.2,0.1l-0.2,0.2
			l0.1,0.5l0.2,0.9L8,91.9l0.4,0.3L8.8,92l0.3-0.2l0.6-0.3l0.3-0.2l0.6-0.4l0.9-0.2l1.6,0l1.9,0l0.5-0.2l0.3,0.1l0.8-0.1l0.4,0.2
			l0.4-0.2l1.1-0.2l1,0l1,0.2l2.1,0.5l1.3,0.6l2.3,0.8l1,0.8l0.7,0.4l2,0.9l3.2,0.7l0.7-0.2l0.2,0.1l0.2-0.1l0.4,0.2l2.9,0.5l0.6,0
			l0.6-0.1l1.4-0.7l0.6-0.1l1.2,0.1l0.5,0l0.2-0.3l-0.4-0.1l0.1-0.2l0.2-0.1l0.6-0.1L43,93.7l-0.4,0l-0.5,0.1l-0.3,0.2h-0.1
			l-0.1-0.4L41,92.6l0.2-0.1l0.6-0.4L41.6,92l-0.2,0l-0.2,0.1l-0.5,0.1l-0.3,0.2l-0.1,0.1l-0.2-0.2L40,91.8l-0.1-0.5l-0.1-0.4
			l0.4,0.3l0.1,0l0.1-0.1l0.2-0.3l0.1-0.1l0.3,0.1l0.1,0.2l0,0.2l-0.2,0.2l0.3,0l0.2-0.2l0.4-0.5l0.3-0.2l1.6-0.6l0.2-0.1l0.1-0.3
			l0-0.2l0-0.1l0.3,0l0.2,0.1l0.2,0.2l0.2,0.1l0.5-0.4l0.2,0l0.9,0.1l0.2,0.1l0.1,0.2l0,0.3l-0.1,0.4l-0.1-0.1l-0.2-0.2L46.5,90
			l-0.2,0.2l-0.2,0.4L46,91l0.1,0.2l0.1,0.2l0,0.3l0.2,0.2l0.5-0.1l0.7-0.4l0.3-0.1l1.8-0.1l0.4,0.1l0.5,0.2l0.1,0.3l-0.1,1
			l-0.1,0.5l-0.1,0.4l0.1,0.2l0.5,0l0.2-0.1l0.4-0.2l0.2,0l0.2,0.1l0,0.2l0,0.3l0.1,0.2l0.2,0.4l0.1,0.5l-0.1,0.4l-0.3,0.2l0.5,0.1
			l0.8-0.1l0.8-0.3l0.4-0.3l0.3,0.2l0,0.2l-0.1,0.2l-0.1,0.2l0.1,0.1l0.2,0.1l0.5,0l0.5,0.1l0.8,0.3l0.4,0.3l0.1-0.2l0.2-0.4
			l0.1-0.2l0-0.1l-0.1-0.2l0-0.2l0.1-0.2l0.5-0.5l0.1-0.3l-0.2-0.5l0.3,0l0.2,0.1l0.2,0.2l0.1,0.3l-0.1,0.4l-0.2,0.2l-0.2,0.2
			L58,95.7l-0.2,0.5l-0.1,0.6l0.1,0.6l0.3,0.5l0.1,0.1l0.2,0.1l0.1,0.1l0,0.1l0,0.4l0.1,0.2l0.2,0.2l0.6,0.4l1.1,0.9l0.2,0.5
			l-0.3,0.6v0.1l0.1,0.1l0.1,0.1l0.1,0.1l-0.2,0.2l-0.2,0.1l-0.4,0.1l0-0.2l-0.1-0.2l-0.1-0.1l-0.2-0.1l0.2-0.3l0.1-0.3l0-0.7
			l-0.6,0.2l-0.5-0.3l-0.2-0.4l0.1-0.4l-0.5,0l-0.2,0.2l-0.2,0.4l-0.2,0.4l-0.3,0.2l-0.4,0.1l-0.3-0.1l-0.2-0.3l0.2,1l0.8,0.7
			l1.1,0.5l2,0.3l0.2,0.1l0.4,0.4l0.2,0.1l0.3,0l0.3,0l0.2-0.2l0.1-0.3l0.1-0.1l0.3,0l0.3,0.1l0.2,0.2l-0.2,0l-0.1,0.1l-0.1,0.2
			l0,0.2l0.5-0.2l0.5,0.1l0.5,0.3l0.9,0.8l0.2,0l0.1-0.1l0-0.1l0.1-0.1l0.4-0.2l0.1-0.2l-0.1-0.3l0.3,0.1l0.3,0.2l0.3,0.1L67,104
			l0.1,0.4l-0.2,0.1l-0.3,0.1l-0.2,0.3l0.2,0l0.7,0.2l0.1,0l0.1-0.3l0.3,0l0.3,0.1l0.1,0.1l0.2-0.1l0.1-0.1l0.1-0.1l0.3-0.1l0-0.2
			l0-0.2l0-0.1l0.2-0.1l0.2,0.1l0.1,0.2l0.1,0.3v-0.4l0.1-0.8l0,0l-0.1-0.1l0.2-0.5l0.1-0.2l0.1-0.2l0.2,0.2l0.1,0.2l0.1,0.1
			l0.2-0.2l-0.2-0.3l0.1-0.2l0.2-0.3l0-0.4l-0.4-0.1l-0.1-0.1l0-0.2l0.1-0.1l0.1,0l0.2,0.1l0-0.2l0.1-0.1l0.2,0l0.2,0v0.2L71,101
			l0.2,0.1l0.7,0.2l0.2-0.1l0.2-0.2l0.2,0l0.3,0.3l0.4-0.5l0.2-0.3l0.1-0.3l0.1-0.3l0.2,0l0.2,0.1l0,0.1l0.1,0.1l0.4,0.6l0.1,0.3
			v1.2l0.5-0.6l0.1-0.2l0-0.3L75,101l0.2-0.1l0.2-0.1v0.1l0,0.3l0.7,0.8l0.2,0.4l0.1,0.1l0.2-0.3l0.1-0.4l0-0.2l0.2,0L77,102
			l0.1,0.3l0,0.2l0,0.3l-0.1,0.3l0,0.3l-0.1,0.2l-0.1,0.2l-0.1,0.2l0.1,0.2l0.4,0.4l0.1,0.2l0.1,0.3l0,0.3l0,0.2l-0.1,0.1l0.3,0.1
			l0.6-0.2l1-0.6l0.3-0.1l0.3-0.3l0.3-0.3l0.3-0.2l0.1-0.1l0.4-0.8l0.1-0.4l-0.6,0.1l-0.3-0.6l0.1-0.7l0.6,0l-0.2-0.4l0.2-0.2
			l0.3,0.1l0.3,0.4l0.4-0.2V101l-0.3-0.2l-0.3-0.3l-0.2-0.4l0-0.4l0.2,0.1l0.1,0.1l0.1,0.1l0.1,0.2l0-0.6l0-0.2l-0.1-0.1L81,99.2
			l-0.1-0.1l0-0.4l0.1-0.2l0.2-0.1l0.3-0.1L81,97.9l-0.4-0.3l-0.5-0.2l-0.5,0l-0.2,0l-0.2-0.1l-0.8-0.8l-0.2-0.1L78,96.4l-0.1,0
			l-0.1-0.1l-0.1-0.2H78l0.2,0l0.3-0.1v-0.2l-0.1,0l-0.4,0l0.1-0.3l0.3-0.4l0.1-0.2l0.3,0.3l0.4,0.7l0.3,0.3l0.1-0.2l-0.2-0.2
			l0.1-0.1l0.3-0.1l0.3,0.1l0.4,0.2l2.1,1.4l0.6,0.2l0.6-0.3l0.6,0.6l0.3,0.1l0.1-0.5l0-0.3l0.1-0.1l0.1,0.1l0.5,0.1l0,0.1l-0.1,0.3
			l0,0l-0.1,0.1l-0.1,0.1l0,0.1v0.1l0,0.1l0,0l0,0l0,0.1l0.1,0.1l0.1,0.1l0.1,0.1l0.4-0.2l0.2-0.1l0.1,0.2l-0.1,0.1l-0.1,0.1
			l-0.1,0.2l0.1,0.3l0.1-0.1l0.1,0l0.1,0l0.1-0.1l0.1,0.3l0.1,0.3l0,0.2l-0.2,0.2l-0.2,0.2l-0.3,0.2l-0.7,0.2l2.7,0.2l0.2-0.1
			l0.5-0.5l0.3-0.1l0.2,0.2l0,0.2l-0.3,0.5l0.3,0.3l0.1,0.3l0.2,0.3l0.5,0.1l0.5,0l1.1,0.4l-0.2-0.5l0.2-0.2l0.4,0l0.4,0.2l-0.4,0.2
			l-0.2,0l1.1,1.9l0.4,0.2l0.1,0.1l-0.1,0.2l0,0.2l0.2,0.6l0.2,0.2l0.4-0.1l0.5-0.3l0.2-0.3l0-0.3l-0.1-0.5l0-0.3l0.1-0.2l0.1-0.1
			l0.1,0l0.1,0.2l0,0.5l0,0.3l0.1,0.2l0.2-0.1l0.1-0.2l0-0.3l0-0.2l0.3,0l0,0.4l-0.2,0.5l-0.1,0.2l-0.3,0.7l-0.2,0.1l-0.4,0.1
			l-0.2,0.1l0,0.1l0,0.2v0.2l-0.1,0.2l-0.4,0.5l-0.1,0.2l-0.3,0.3l-0.1,0.1l-0.1,0.2l-0.1,0.7l0.4-0.1l0.3-0.3l0.9-1.3l0.1-0.3
			l0-0.3l0.2-0.3l0.4-0.1l0.4-0.1l0.3-0.1l0.1-0.2l0-0.1l-0.1-0.2l0-0.2l0-0.2h0.1l0.2,0.1l0.1,0.2l0.5,0.8l0.1,0.3l0.1,0.2l0.6,0.7
			l0.2,0.1l0.3-0.1l-0.4-0.7l0.1-0.4l0.5-0.5l0.2-0.3l0.1-0.3l0.1,0.2l0.1,0.1l0.2,0.2l0-0.3l-0.1-0.2l-0.1-0.2l-0.1-0.2l0.3,0
			l0.2,0.1l0.1,0.2l0,0.3l0.3-0.2l0.5-1.1l-1.3,0l-0.2,0l0-0.3l0.3-0.3l0.3-0.2l0.3-0.1l0,0.1l0,0.2v0.1h0.1l0.1-0.2l0.1,0l0.4,0.1
			l-0.1-0.2l-0.1-0.1l-0.2,0v-0.2H100.8z M94.7,84.6l0.4-0.1l0,0l0.1-0.1l0.1-0.1l0.1,0l0.1,0l0.1,0.1l0.1,0.1l0.1,0l0,0l0.1-0.1
			l0.1-0.1l0.1,0l0.1,0.1l0.1,0.1l0.1,0.2l0.1,0.1l0.3,0.4l0.1,0.1l0.1-0.2l0.3,0.1l0.2-0.2l0.1-0.3l0-0.4h-0.1l-0.1,0.1l-0.1,0.1
			L97,84.3l-0.1,0.1l0-0.1l-0.1-0.2l0.1-0.3l-0.3-0.2l-0.3-0.2l0.3-0.4l0.5-0.6l0.2-0.2l0.3-0.1V82l-0.3,0.1L97,82.3l-0.4,0.4
			l-0.5,0.4l-0.3,0.1l-0.3,0.1l0.1,0.4l-0.2,0.1h-0.2l-0.1,0l-0.1,0.2l-0.2,0.1l-0.3,0.1l-0.2,0l0.1,0.3L94.7,84.6z M92.9,82.6
			l0-0.1l-0.1,0.1l-0.1,0.2l0.2,0.1L92.9,82.6z M82.6,101.7l-0.3,0.3l-0.5,0.2l-0.4,0.2l-0.1,0.5h0.1l0.3-0.3l0.7-0.3l0.4-0.3
			l-0.1-0.2l0.1-0.1H82.6z M96.5,86.9L96,87l-0.3,0.1l-0.3,0.3l0,0.1l0.2-0.1l0.2-0.1l0.4-0.1h0.3l0.1-0.1l-0.1-0.1V87L96.5,86.9z
			 M96.8,97.4l0.4,0l0.4-0.1l0.3-0.2l0.1-0.3l0-0.1l0-0.1l0,0l-0.1,0L97.7,97l-0.3,0.2L96.8,97.4z M48.8,94.9l-0.5,0l-0.6-0.1l0,0
			l-0.6-0.3l-0.5-0.5l-0.3-0.2l-1.1-0.2l-0.2,0l-0.1,0.1l-0.2,0.3l-0.1,0.1l-0.5,0.2l-0.4,0l-0.4,0.1L43,94.6l0,0.3l0.3,0.3l1.9,0.8
			l0.2,0.2l0.2,0.1l1.1,0.7l0.7-0.1l0.3,0l0.1-0.1l0-0.2l0-0.3L48,96l0.3-0.2l0.7-0.4l0.2-0.3L49,94.9L48.8,94.9z M101.4,93.8
			L101.4,93.8l0.2-0.1l0.1-0.1l-0.1,0.1L101.4,93.8z M63.8,106.3L63.8,106.3l-0.2-0.1L63.8,106.3z M63.9,106.3l0.5,0.2h0.7l-0.4-0.1
			L63.9,106.3z M104.5,86.1l-0.3-0.4l-0.1-0.5l-0.2-0.5l-0.4-0.3l0.3,0.2l0.2,0.3l0.2,0.8l0.1,0.2l-0.1,0.3l0.1,0.4l0.3,0.6
			l-0.1,0.1l0,0.4l0,1.1l-0.1,0.4l-0.6,1.1l0.1,0.1l0,0.1l0,0.1l0,0.1l0.5-0.9l0.2-0.5l0.2-1.8L104.5,86.1z M102.4,92.7l0.7-0.9
			l0.3-0.5l-1.2,1.6L102.4,92.7z M80.7,97.3l0.1,0.1l0.1,0.1l0.1,0H81l0.1-0.1l0.2,0l0.1,0.1l0.1,0.2l0.1,0.1l0.3,0l0.1,0l0.1-0.1
			l0-0.2l0-0.1l0,0l0-0.1l0-0.1l0,0l0,0.1l-0.1,0l-0.1,0l-0.2-0.1l-0.2-0.2l0-0.1l0.2,0l0.1-0.1L81.5,97l-0.2-0.1l-0.2-0.1L81,96.8
			l-0.1-0.1l-0.1-0.1l-0.4-0.1l-0.3,0l-0.2,0l-0.2,0l-0.1,0.1l0,0.2l0.3,0.4l0.2,0.1l0.3-0.1l0.3,0l0.1,0L80.7,97.3L80.7,97.3z
			 M76.1,105.8l-0.2,0.1l-0.1,0.1l-0.5,0.4l1.2-0.4v-0.2h-0.2L76.1,105.8z M69.4,106.2L69.4,106.2l-0.4,0l-0.1,0.1l-0.1,0.1l-0.2,0
			l-0.2-0.1l-0.1-0.1h-0.1l-0.4,0.2l-0.1,0.1l-0.5,0.1l0,0.1h0.3l1.5-0.4L69.4,106.2l0.2-0.1l0-0.1L69.4,106.2L69.4,106.2z
			 M73.9,106.4l-0.2-0.1l-0.5-0.2l-1.1-0.2l0,0.1l0.9,0.4l0.8,0.2H74L73.9,106.4L73.9,106.4z M73.4,102.4l0.1-0.1l0.1-0.2l0-0.2
			l-0.2,0.1l-0.1,0.5l0,0.3l0.1-0.2L73.4,102.4z"/>
	</defs>
	<clipPath id="SVGID_2_">
		<use xlink:href="#SVGID_1_"  overflow="visible"/>
	</clipPath>
	
		<rect x="-0.4" y="13.2" clip-path="url(#SVGID_2_)" fill-rule="evenodd" clip-rule="evenodd" fill="#FFFFFF" width="110" height="101"/>
</g>
</svg>
