<?xml version="1.0" encoding="utf-8"?>
<!-- Generator: Adobe Illustrator 18.0.0, SVG Export Plug-In . SVG Version: 6.00 Build 0)  -->
<!DOCTYPE svg PUBLIC "-//W3C//DTD SVG 1.1//EN" "http://www.w3.org/Graphics/SVG/1.1/DTD/svg11.dtd">
<svg version="1.1" id="Layer_1" xmlns="http://www.w3.org/2000/svg" xmlns:xlink="http://www.w3.org/1999/xlink" x="0px" y="0px"
	 viewBox="0 0 612 792" enable-background="new 0 0 612 792" xml:space="preserve">
<g>
	<g>
		<defs>
			<path id="SVGID_1_" d="M402.8,261.3c26.2,0,47.1,10.5,62.8,26.2c15.7-5.2,36.6-10.5,54.9-20.9c-2.6,15.7-10.5,39.2-36.6,49.7l0,0
				c13.1-2.6,34-7.8,47.1-18.3c20.9-13.1-13.1,28.8-41.8,49.7v7.8v7.8c0,133.4-104.6,243.2-235.4,243.2
				c-49.7,0-94.2-15.7-130.8-39.2c49.7,13.1,112.5-20.9,122.9-34c-62.8-5.2-78.5-62.8-78.5-62.8s31.4,5.2,34-5.2
				C136,452.2,136,381.6,136,381.6s23.5,13.1,31.4,7.8c-57.5-54.9-20.9-115.1-20.9-117.7c36.6,57.5,99.4,83.7,175.2,94.2
				c0-7.8-2.6-13.1-2.6-20.9C319.1,297.9,355.7,261.3,402.8,261.3z"/>
		</defs>
		<use xlink:href="#SVGID_1_"  overflow="visible" fill="#FFFFFF"/>
		<clipPath id="SVGID_2_">
			<use xlink:href="#SVGID_1_"  overflow="visible"/>
		</clipPath>
		<rect x="-10.5" y="130.5" clip-path="url(#SVGID_2_)" fill="#FFFFFF" width="677.4" height="606.8"/>
	</g>
</g>
</svg>
